<?xml version="1.0" encoding="UTF-8"?>
<!DOCTYPE svg PUBLIC "-//W3C//DTD SVG 1.1//EN" "http://www.w3.org/Graphics/SVG/1.1/DTD/svg11.dtd">
<!-- Creator: CorelDRAW 2017 -->
<svg xmlns="http://www.w3.org/2000/svg" xml:space="preserve" width="6.223mm" height="6.35mm" version="1.1" style="shape-rendering:geometricPrecision; text-rendering:geometricPrecision; image-rendering:optimizeQuality; fill-rule:evenodd; clip-rule:evenodd"
viewBox="0 0 622.3 635"
 xmlns:xlink="http://www.w3.org/1999/xlink">
 <defs>
  <style type="text/css">
   <![CDATA[
    .fil0 {fill:#FEFEFE}
   ]]>
  </style>
 </defs>
 <g id="Layer_x0020_1">
  <metadata id="CorelCorpID_0Corel-Layer"/>
  <path class="fil0" d="M317.5 272.12l0 108.88 180.08 0c-7.28,46.7 -54.4,136.9 -180.08,136.9 -108.35,0 -196.82,-89.67 -196.82,-200.4 0,-110.73 88.5,-200.4 196.82,-200.4 61.65,0 102.95,26.17 126.6,48.93l86.1 -83.03c-55.3,-51.62 -127,-83 -212.7,-83 -175.55,0 -317.5,141.95 -317.5,317.5 0,175.55 141.95,317.5 317.5,317.5 183.25,0 304.8,-128.83 304.8,-310.25 0,-20.85 -2.25,-36.78 -5,-52.63l-299.8 0z"/>
 </g>
</svg>
