<?xml version="1.0" encoding="UTF-8"?>
<!DOCTYPE svg PUBLIC "-//W3C//DTD SVG 1.1//EN" "http://www.w3.org/Graphics/SVG/1.1/DTD/svg11.dtd">
<!-- Creator: CorelDRAW 2017 -->
<svg xmlns="http://www.w3.org/2000/svg" xml:space="preserve" width="6.35mm" height="6.35mm" version="1.1" style="shape-rendering:geometricPrecision; text-rendering:geometricPrecision; image-rendering:optimizeQuality; fill-rule:evenodd; clip-rule:evenodd"
viewBox="0 0 635 635"
 xmlns:xlink="http://www.w3.org/1999/xlink">
 <defs>
  <style type="text/css">
   <![CDATA[
    .fil0 {fill:#FEFEFE}
   ]]>
  </style>
 </defs>
 <g id="Layer_x0020_1">
  <metadata id="CorelCorpID_0Corel-Layer"/>
  <path class="fil0" d="M317.5 0c-86.25,0 -97.02,0.4 -130.89,1.9 -33.81,1.59 -56.83,6.91 -77.07,14.77 -20.88,8.09 -38.61,18.97 -56.25,36.62 -17.65,17.64 -28.55,35.35 -36.62,56.25 -7.86,20.24 -13.2,43.26 -14.77,77.07 -1.58,33.87 -1.9,44.64 -1.9,130.89 0,86.25 0.4,97.02 1.9,130.89 1.59,33.79 6.91,56.83 14.77,77.07 8.09,20.85 18.97,38.61 36.62,56.25 17.64,17.62 35.35,28.55 56.25,36.62 20.26,7.83 43.28,13.2 77.07,14.77 33.87,1.58 44.64,1.9 130.89,1.9 86.25,0 97.02,-0.4 130.89,-1.9 33.79,-1.59 56.83,-6.94 77.07,-14.77 20.85,-8.09 38.61,-19 56.25,-36.62 17.62,-17.64 28.55,-35.32 36.62,-56.25 7.83,-20.24 13.2,-43.28 14.77,-77.07 1.58,-33.87 1.9,-44.64 1.9,-130.89 0,-86.25 -0.4,-97.02 -1.9,-130.89 -1.59,-33.79 -6.94,-56.86 -14.77,-77.07 -8.09,-20.88 -19,-38.61 -36.62,-56.25 -17.64,-17.65 -35.32,-28.55 -56.25,-36.62 -20.24,-7.86 -43.28,-13.2 -77.07,-14.77 -33.87,-1.58 -44.64,-1.9 -130.89,-1.9zm0 57.15c84.75,0 94.85,0.42 128.32,1.88 30.96,1.45 47.76,6.59 58.93,10.98 14.87,5.74 25.4,12.62 36.56,23.71 11.09,11.11 17.97,21.66 23.71,36.53 4.34,11.17 9.52,27.97 10.93,58.93 1.5,33.49 1.85,43.55 1.85,128.32 0,84.77 -0.4,94.85 -1.96,128.32 -1.61,30.96 -6.77,47.76 -11.14,58.93 -5.93,14.87 -12.67,25.4 -23.79,36.56 -11.08,11.09 -21.8,17.97 -36.51,23.71 -11.11,4.34 -28.18,9.52 -59.13,10.93 -33.71,1.5 -43.63,1.85 -128.56,1.85 -84.96,0 -94.88,-0.4 -128.56,-1.96 -30.99,-1.61 -48.05,-6.77 -59.17,-11.14 -15.05,-5.93 -25.4,-12.67 -36.48,-23.79 -11.14,-11.08 -18.26,-21.8 -23.81,-36.51 -4.37,-11.11 -9.5,-28.18 -11.12,-59.13 -1.19,-33.34 -1.61,-43.63 -1.61,-128.17 0,-84.56 0.42,-94.88 1.61,-128.61 1.62,-30.96 6.75,-48 11.12,-59.11 5.55,-15.08 12.67,-25.4 23.81,-36.54 11.08,-11.08 21.43,-18.23 36.48,-23.76 11.12,-4.39 27.81,-9.55 58.77,-11.14 33.73,-1.19 43.65,-1.58 128.56,-1.58l1.19 0.79zm0 97.31c-90.09,0 -163.04,73.03 -163.04,163.04 0,90.09 73.03,163.04 163.04,163.04 90.09,0 163.04,-73.03 163.04,-163.04 0,-90.09 -73.03,-163.04 -163.04,-163.04zm0 268.87c-58.47,0 -105.83,-47.36 -105.83,-105.83 0,-58.47 47.36,-105.83 105.83,-105.83 58.47,0 105.83,47.36 105.83,105.83 0,58.47 -47.36,105.83 -105.83,105.83zm207.59 -275.3c0,21.04 -17.09,38.1 -38.1,38.1 -21.03,0 -38.1,-17.09 -38.1,-38.1 0,-21 17.09,-38.07 38.1,-38.07 20.98,-0.03 38.1,17.07 38.1,38.07z"/>
 </g>
</svg>
