<?xml version="1.0" encoding="UTF-8"?>
<!DOCTYPE svg PUBLIC "-//W3C//DTD SVG 1.1//EN" "http://www.w3.org/Graphics/SVG/1.1/DTD/svg11.dtd">
<!-- Creator: CorelDRAW 2017 -->
<svg xmlns="http://www.w3.org/2000/svg" xml:space="preserve" width="6.35mm" height="6.35mm" version="1.1" style="shape-rendering:geometricPrecision; text-rendering:geometricPrecision; image-rendering:optimizeQuality; fill-rule:evenodd; clip-rule:evenodd"
viewBox="0 0 635 635"
 xmlns:xlink="http://www.w3.org/1999/xlink">
 <defs>
  <style type="text/css">
   <![CDATA[
    .fil0 {fill:none}
    .fil1 {fill:black}
    .fil2 {fill:black;fill-opacity:0.301961}
   ]]>
  </style>
 </defs>
 <g id="Layer_x0020_1">
  <metadata id="CorelCorpID_0Corel-Layer"/>
  <g id="_1810390746560">
   <polygon class="fil0" points="-0,635 635,635 635,0 -0,0 "/>
   <path class="fil1" d="M264.58 105.83l291.04 0c14.62,0 26.46,11.85 26.46,26.46l0 52.92c0,14.61 -11.84,26.46 -26.46,26.46l-291.04 0c-14.61,0 -26.46,-11.85 -26.46,-26.46l0 -52.92c0,-14.61 11.85,-26.46 26.46,-26.46zm0 158.75l291.04 0c14.62,0 26.46,11.85 26.46,26.46l0 52.92c0,14.61 -11.84,26.46 -26.46,26.46l-291.04 0c-14.61,0 -26.46,-11.85 -26.46,-26.46l0 -52.92c0,-14.61 11.85,-26.46 26.46,-26.46zm0 158.75l291.04 0c14.62,0 26.46,11.85 26.46,26.46l0 52.92c0,14.61 -11.84,26.46 -26.46,26.46l-291.04 0c-14.61,0 -26.46,-11.85 -26.46,-26.46l0 -52.92c0,-14.61 11.85,-26.46 26.46,-26.46z"/>
   <path class="fil2" d="M79.38 105.83l79.37 0c14.62,0 26.47,11.85 26.47,26.46l-0.01 370.42c0.01,14.6 -11.84,26.45 -26.45,26.45l-79.38 0.01c-14.6,-0.01 -26.45,-11.86 -26.45,-26.47l-0.01 -370.41c0.01,-14.61 11.86,-26.46 26.47,-26.46z"/>
  </g>
 </g>
</svg>
