<?xml version="1.0" encoding="UTF-8"?>
<!DOCTYPE svg PUBLIC "-//W3C//DTD SVG 1.1//EN" "http://www.w3.org/Graphics/SVG/1.1/DTD/svg11.dtd">
<!-- Creator: CorelDRAW 2017 -->
<svg xmlns="http://www.w3.org/2000/svg" xml:space="preserve" width="490.432mm" height="489.103mm" version="1.1" style="shape-rendering:geometricPrecision; text-rendering:geometricPrecision; image-rendering:optimizeQuality; fill-rule:evenodd; clip-rule:evenodd"
viewBox="0 0 195120.55 194592.12"
 xmlns:xlink="http://www.w3.org/1999/xlink">
 <defs>
  <style type="text/css">
   <![CDATA[
    .fil33 {fill:#FEFEFE}
    .fil0 {fill:#FEFEFE}
    .fil24 {fill:#032869}
    .fil34 {fill:#032869}
    .fil18 {fill:#042D89}
    .fil6 {fill:#1263D8}
    .fil5 {fill:#144685}
    .fil32 {fill:#144685}
    .fil12 {fill:#7B92DE}
    .fil10 {fill:#7C93DF}
    .fil27 {fill:#7D94DF}
    .fil26 {fill:#7E95E1}
    .fil19 {fill:#89A3F7}
    .fil15 {fill:#8AA4F8}
    .fil11 {fill:#C4CBE4}
    .fil29 {fill:#CAD2E7}
    .fil30 {fill:#D5DAE4}
    .fil14 {fill:#D8E1FE}
    .fil13 {fill:#D9E2FE}
    .fil20 {fill:#DDE1E5}
    .fil23 {fill:#DDE2EB}
    .fil21 {fill:#E2E3E3}
    .fil7 {fill:#E4E4E4}
    .fil8 {fill:#E5E5E5}
    .fil28 {fill:#EAF1FF}
    .fil16 {fill:#EBF0FE}
    .fil25 {fill:#EFF4FF}
    .fil31 {fill:#F8B587}
    .fil17 {fill:#FAFBFF}
    .fil2 {fill:#FCC491}
    .fil3 {fill:#FCC596}
    .fil9 {fill:#FCFDFF}
    .fil4 {fill:#FDCEAB}
    .fil22 {fill:#FEFEFE}
    .fil1 {fill:#FFD0AC}
   ]]>
  </style>
 </defs>
 <g id="Layer_x0020_1">
  <metadata id="CorelCorpID_0Corel-Layer"/>
  <rect class="fil0" x="81390.17" y="29085.79" width="87833.96" height="119926.64" rx="10986.72" ry="10986.72"/>
  <g id="_1810393004240">
   <path class="fil1" d="M113781.29 122752.12l285.82 -1895.66 -2602.93 -1744.87 -2170.02 464.14c-293.02,2805.99 581.98,4305.82 3462.05,4331.25l1025.07 -1154.85z"/>
   <path class="fil1" d="M134853.67 171759.2l415.92 2108.95 2290.89 -404.14 2871 -1320.28c-689.96,-967.62 -1065.57,-1303.01 -1492.79,-2457.43l-4085.01 2072.9z"/>
  </g>
  <g id="_1810393003920">
   <path class="fil2" d="M45766.43 78750.14l-959.43 1675.96c-371.52,2176.78 2519.38,1734.49 4354.8,1454.95l1385.29 -2141.29 -480.45 -350.95c-1700.91,-1890.37 -872.5,-455.03 -3145.36,-1623.37 -787.55,766.39 -196.02,229.12 -1154.85,984.69z"/>
   <path class="fil2" d="M117104.93 78803.06l-464.26 272.61 593.12 1744.24c1602.8,634.86 2928.45,891.47 4997.85,229.48l-281.4 -2771.02 -1278.39 -822.29 -3566.93 1346.98z"/>
  </g>
  <g id="_1810393006352">
   <path class="fil3" d="M76253.8 91046.96l38.47 3153.83c2253.53,910.65 2717.47,1156.25 5071.93,509.77 1811.07,-512.76 711.44,-30.75 1139.77,-887.1l-1940.26 -2810.09c-1920.92,-566.27 -684.63,337.94 -2270.32,-891.04l1034.94 -484.51c-1882.81,-539.77 -2119.81,292.74 -3074.54,1409.12z"/>
   <path class="fil3" d="M66809.6 115306.59c616.99,963.84 -161.49,726.84 2192.34,799.85 1044.37,32.46 1626.35,-154.13 2557.85,-367.14l-1214.17 -1619.43 -1891.12 -392.84 -1644.89 1579.56z"/>
   <path class="fil3" d="M67372.77 118350.69c1189.86,1455.11 205.13,978.6 2315.83,1167.27 1943.24,-989.58 77.38,102.65 1086.14,-1158.95 -246.11,-298.83 -121.35,-953.18 -1784.26,-972.32 -1877.95,-21.84 -1406.3,306.98 -1617.72,964z"/>
  </g>
  <g id="_1810393007888">
   <path class="fil4" d="M46921.28 77765.45c2272.86,1168.34 1444.45,-267 3145.36,1623.37 604.74,-1267.57 -69.55,-466.96 1143.55,-1333.49 692.78,-495.05 1239.16,-685.58 1675.64,-1034.02l-25.1 -373.98 460.16 -5315.7c-2607.14,406.97 -3487,-24.19 -5593.8,-268.55l569.13 2784.03c-1937.43,-878.78 -446.55,-458.29 -2624.89,-828.25 391.25,2694.75 1161.46,2061.6 1249.94,4746.61z"/>
   <path class="fil4" d="M113982.37 70710.09l756.52 6369.62c2088.54,899.67 1911.21,-32.35 2366.04,1723.35l3566.93 -1346.98c-1002.16,-3086.48 556.88,-1511.93 822.45,-4846.23 -1846.25,234.93 -691.07,255.98 -2625.68,491.39l593.6 -2661.13c-1747.54,407.01 -3427.08,770.33 -5479.85,269.98z"/>
   <polygon class="fil4" points="57987.45,173829.71 57987.45,174741.91 63591,175011.58 63469.49,173855.93 63388.81,173537.61 63272.67,172855.17 58702.68,172750.81 "/>
   <polygon class="fil4" points="100756.08,173832.86 100624.08,175170.72 106334.49,175084.23 105962.69,173854.02 105633.39,173416.94 105480.53,172892.69 104939.81,173027.2 100604.14,173145.08 "/>
   <path class="fil4" d="M38499.81 173202.69l5229.52 1662.75 199.8 -923.22 -20.41 -504.12 -20.53 -658.89 -4293.17 -1411.95c-14.88,18.38 -535.19,774.38 -623.88,919.12 -51.48,83.95 -192.4,536.15 -232.15,437.88 -42.69,-105.95 -156.48,320.35 -239.19,478.42z"/>
  </g>
  <g id="_1810393008528">
   <path class="fil5" d="M106334.49 175084.23l-5710.41 86.49c-1662.12,569.73 -5361.21,1953.9 -6204.19,3293.96 1145.58,527.52 12964.18,3182.88 12764.06,-1642.34 -68.91,-1664.82 -587.19,-1479.3 -849.46,-1738.11z"/>
   <path class="fil5" d="M63591 175011.58l-5603.55 -269.67c-1367.23,650.41 -1099.95,1802.44 -878.18,3459.43 3276.41,1381.95 9440.89,1915.43 12555.78,263.34 -1108.54,-1369.1 -3624.82,-2216.97 -6074.05,-3453.1z"/>
   <path class="fil5" d="M36977.54 173925.12l-521.39 2323.39c1897.09,1269.91 7772.93,3862.29 10502.49,3816.3 3112.38,-52.24 767.82,14.76 1725.85,-491.39l-4955.16 -4707.97 -5229.52 -1662.75c-1597.78,289.88 -104.99,-584.81 -1522.27,722.42z"/>
   <path class="fil5" d="M137560.48 173464l-2610.76 703.17c-1013.14,1762.89 -2859.5,3022.1 -4428.88,4277.42 46.75,1966.32 -149.43,243.45 801.24,956.48l7122.36 -2168.95c2131.9,-623.08 3298.85,-931.66 4160.69,-2550.33 -599.09,-1203.51 -500.98,-2762.66 -2173.64,-2538.07l-2871 1320.28z"/>
   <path class="fil6" d="M66813.06 112529.92c-842.54,1131.34 -916.46,1339.14 -2040.4,2615.46l835.77 1220.02 783.06 -154.45 418.11 -904.36 1644.89 -1579.56c-420.02,-1484.79 -70.94,-1956.77 -1641.43,-1197.11z"/>
   <path class="fil6" d="M75114.46 95239.99c1351.87,-542.59 661.43,205.89 1177.81,-1039.2l-38.47 -3153.83 -2010.4 107.06 871.06 4085.97z"/>
  </g>
  <g id="_1810393010992">
   <path class="fil7" d="M126985.93 110937.31c-253.95,400.72 -806.13,1360.03 -941.24,1558.24 -1071.22,1570.17 -319.4,338.26 -1253.44,1482.88 -996.35,1220.98 -851.77,1597.35 -2221.34,3022.14 1096.13,-537.7 758.39,-326.16 1927.69,-1089.09 1533.57,-1000.56 638.8,-630.8 2343.64,-1259.09 930.22,-1163.01 1640.16,-1405.18 2644.5,-2612.79 1169.61,-1406.77 1419.63,-1865.06 2644.5,-3062.77l1748.29 271.5c626.38,-721.03 871.22,-939.65 1534.84,-1751.12 181.1,-221.61 601.28,-830.6 744.43,-964 1036.69,-965.87 -236.68,-6.6 1265.06,-850.06 -1719.93,-1271.78 -2003.68,-1966.16 -4359.69,-2807.74 -1707.04,3301.52 -4594.35,5437.8 -6077.23,8061.89z"/>
   <polygon class="fil7" points="133604.65,96917.5 136952.59,97084 134231.51,90097.56 133637.27,90102.73 131438.84,90154.05 "/>
  </g>
  <g id="_1810393013712">
   <path class="fil8" d="M81510.78 135987.52l171.24 3706.61 2923.12 -175.81 1953.59 -1998.94 169.96 -12282.21 -2239.68 -1986.25 -1897.13 -16.79c209.55,3885.21 953.18,10029 -1081.09,12753.39z"/>
   <path class="fil8" d="M127216.49 71590.43c-693.9,2435.43 -1890.65,3682.27 -2984.47,5349.91l5616.4 21.48 430.24 35.17c538.5,-1875.13 2276.6,-4878.57 2061.72,-6361.78 -422.52,-2916.04 -2393.85,-4340.71 -4341.31,-5363.72l-350.03 483.87c1042.5,3299.17 1170.73,3141.26 -432.55,5835.06z"/>
   <path class="fil8" d="M142018.28 109902.69c956.01,4092.41 -1431.12,4673.6 -2718.74,7049.07l5754.37 -75.47 559.22 -8.79c359.1,-1196.63 964.64,-2455.24 474.92,-3943.78 -739.69,-2248.83 -1299.87,-1236.77 -2178.02,-2927.65l-1891.76 -93.38z"/>
  </g>
  <path class="fil9" d="M165928.52 155250.53c2768.35,-5449.26 9964.95,-12912.06 8855.93,-15865.45 -990.22,-403.5 -547.29,-933.41 -2165.64,-118.96l-3452.98 4960.65c-1247.91,1820.34 -3134.66,5073.52 -4597.29,6405.58 -4542.23,-4207.27 -3744.93,-5814.65 -6545.11,-3807.71 -85.7,2283.05 -142.35,1623.84 1275.08,3054.17 2923.72,2950.41 2784.82,5230.32 6630.01,5371.72z"/>
  <path class="fil9" d="M42.85 117490.13c2694.71,3845.66 6284.24,1516.3 5647.03,-1476.16 -641.02,-3010.21 -5435.45,-3916.44 -5647.03,1476.16z"/>
  <g id="_1810393015536">
   <path class="fil10" d="M105480.53 172892.69l152.86 524.25 4885.18 -127 4777.96 -23525.07c-2003.2,-440.43 -2564.29,-488.76 -4635.13,134.83l-5180.86 22992.98z"/>
   <path class="fil10" d="M75114.46 95239.99c-2891.37,781.31 -14571.51,4214 -16975.11,5381.42l293.82 3133.74c1595.28,1189.55 2794.57,2488.34 4309.8,3940.63 881.77,845 1373.47,1331.74 2272.51,2156.53 1461.72,1341.17 1397.66,781.63 1797.59,2677.6 1570.49,-759.66 1221.41,-287.69 1641.43,1197.11l1891.12 392.84 -4422.79 -5169.57c-2024.84,-1893.79 -3689.03,-2117.78 -3726.39,-6100.78 6298.72,-705.95 13761.36,-4512.87 19283.26,-5615.6l-115.5 -2523.35c-2354.46,646.47 -2818.4,400.88 -5071.93,-509.77 -516.38,1245.09 174.06,496.6 -1177.81,1039.2z"/>
   <path class="fil10" d="M133387.26 150517.13c344.34,4086.92 2746.67,8672.6 3616.98,12975.95 727.64,1355.13 2171.45,4759.62 1934.45,6193.21 427.22,1154.42 802.83,1489.81 1492.79,2457.43 1672.66,-224.59 1574.55,1334.56 2173.64,2538.07l-73.44 -887.1 1023.32 -641.3c-1543.96,-4294.72 -5828.77,-20266.4 -7549.93,-23321.05l-2207.7 -428.93c-771.4,907.35 -322.86,-496.28 -410.11,1113.71z"/>
   <path class="fil10" d="M70774.74 118359.01c-1008.76,1261.6 857.1,169.37 -1086.14,1158.95 -2110.7,-188.66 -1125.97,287.85 -2315.83,-1167.27 -117.57,133.08 -331.97,108.61 -365.55,387.67l-495.97 1772.8c3081.46,-110.21 6049.3,264.14 7446.65,-813.02 -881.29,-1680.66 -501.3,-618.11 -3183.16,-1339.14z"/>
  </g>
  <g id="_1810393017520">
   <path class="fil11" d="M41912.13 120569.21l0 795.59c4976.84,229.32 13775.48,445.28 16161.02,-3368.68l1364.05 -1624.44c-1039.79,-7062.44 -1838.37,-4207.16 -44.4,-5097.55 -374.82,-342.47 -620.57,-791.01 -1203.83,-1017.83 -65.45,-2051.86 -378.24,-5085.9 244.2,-6501.15l-293.82 -3133.74c-3530.32,271.7 -7006.38,1636.58 -9904.52,-7.68 -3191.47,-1810.6 -3571.78,-3556.86 -5768.97,-5402.63 5196.1,14212.73 11730.67,5641.5 14180.42,13607.35 2670.08,8682.19 -8449.76,10166.94 -14734.15,11750.76z"/>
   <path class="fil11" d="M129287.8 129737.5l6076.44 183.61 144.54 -2.82c470.7,-1583.66 1222.69,-2235.94 2250.58,-3474.94 1225.15,-1476.92 1530.75,-2016.37 2423.02,-3120.37 1901.67,-2352.87 3068.93,-3982.69 4871.53,-6446.68l-5754.37 75.47 -10011.74 12785.74z"/>
   <path class="fil11" d="M133063.17 102875.42c2356.02,841.58 2639.77,1535.96 4359.69,2807.74l987.83 528.31 -533.96 -600.96c-406.17,-2638.41 283.31,-4271.65 -924.14,-8526.51l-3347.95 -166.5c420.02,2637.1 780.67,3908.72 -541.48,5957.92z"/>
   <path class="fil11" d="M121950.25 78278.36l281.4 2771.02c2036.62,-48.38 2751.88,586.84 4222.67,1748.77l50.53 -1911.69c1549.45,-1360.19 2630.38,-2178.69 3343.57,-3924.64l-5616.4 -21.48c-904.84,454.23 -1042.02,615.08 -2281.78,1338.03z"/>
   <path class="fil11" d="M131438.84 90154.05l2198.43 -51.32c-312.63,-1576.9 -1104.6,-2214.62 -2142.25,-3581.81 -1209,-1593.25 -1584.89,-1552.43 -3788.37,-2747.47 855.55,1804.95 1063.98,1609.4 2076.64,3360.84 510.41,882.68 1230.05,2456.16 1655.55,3019.76z"/>
  </g>
  <g id="_1810392954352">
   <path class="fil12" d="M63628.79 137191.66c646.35,5933.92 677.59,11938.03 668.16,17988.09 -4.85,3141.9 -52.56,6283.6 -116.13,9424.86 -41.46,2051.22 574.58,7274.18 -908.14,8250.55l116.13 682.44 4899.3 -118.8c-487.81,-4709.37 71.73,-11554.58 83.67,-16575.82 13.81,-5833.94 -516.85,-11501.07 -577.29,-17143.2l13568.6 50.85c-379.99,-2655.8 -594.51,-1215.76 391.77,-3451.55 -4419.65,1749.09 -12880.99,627.5 -18126.06,892.59z"/>
   <path class="fil12" d="M43888.2 172779.22l20.53 658.89 5192.96 -96.52c904.2,-1408.96 2520.53,-7635.31 3065.47,-9479.21 554.17,-1874.77 2086.35,-8501.68 3245.62,-9859.32 -735.32,-3352.52 -869.83,-7997.52 -2444.22,-10553.65 -1987.64,9223.03 -4931.65,17600.86 -7473.18,26444.85 -593.44,2065.18 -151.62,1796.19 -1607.17,2884.96z"/>
   <path class="fil12" d="M50066.64 79388.82l480.45 350.95c1725.85,177.64 3331.32,747.09 4490.43,1073.53 2227.31,-770.8 1508.47,-1198.94 2288.98,-3366.81l-4440.66 -425.19c-436.49,348.44 -982.86,538.97 -1675.64,1034.02 -1213.1,866.53 -538.81,65.92 -1143.55,1333.49z"/>
  </g>
  <g id="_1810393001968">
   <path class="fil13" d="M112811.48 69970.2l-26.06 -739.73c-1066.01,-1226.27 -827.78,-783.18 -1263.15,-2200.49 1207.77,-2176.9 4236.48,-3797.92 7694.79,-4566.54 4697.43,-1043.89 6181.27,1117.49 8431.97,3291.93l350.03 -483.87c212.34,-5970.65 1735.72,-18110.35 -2826.76,-21201.4 -2566.16,-1738.7 -20271.42,-1718.02 -24054.3,-1028.65 -7478.52,1362.97 -5862.19,11391.02 -5721.91,19007.03 175.97,9556.87 8856.09,8545.12 17415.38,7921.73z"/>
   <path class="fil13" d="M126454.32 82798.15c715.06,892.75 234.02,647.11 1252.33,975.3 2203.48,1195.04 2579.37,1154.22 3788.37,2747.47 1037.65,1367.19 1829.61,2004.91 2142.25,3581.81l594.24 -5.17c4620.84,-91.67 9366.18,124.45 13948.75,-28.57 4710.32,-157.11 5790.62,-3470.69 5427.89,-8078.08 -562.37,-7145.91 -11599.3,-4875.27 -23329.49,-4993.91l-430.24 -35.17c-713.19,1745.95 -1794.13,2564.45 -3343.57,3924.64l-50.53 1911.69z"/>
   <path class="fil13" d="M103968.28 91126.21c1331.42,-1646.88 2642.31,-4545.01 3821,-6340.09 1475.84,-2247.88 3110.35,-3674.75 4903.4,-5422.76l3947.99 -287.69 464.26 -272.61c-454.83,-1755.69 -277.5,-823.68 -2366.04,-1723.35 -4123.01,-263.86 -15216.15,-1062.43 -17790.95,1273.69 -1773.76,1609.36 -2092.52,5770.53 -1228.5,8506.21 871.58,2759.88 3326.78,3201.86 6519.37,3226.96 3312.82,26.54 633.15,-218.02 1729.47,1039.63z"/>
   <path class="fil13" d="M104186.59 129954.25l2869.89 -10245.12c-1821.9,-2057.98 -2834.56,-2931.12 -5930.14,-2834.12 -2902.23,90.87 -4720.07,928.08 -5408.28,3482.02 -2497.93,9268.39 3773.14,9522.81 8468.54,9597.21z"/>
   <path class="fil13" d="M101657.62 108610.18c805.3,1141.05 1241.03,1362.97 2543.09,2451.62 3031.26,2534.18 4289.23,1972.72 6721.52,-1510.85 2607.46,-3734.38 3982.69,-3863.37 -110.33,-7291.88 -4070.89,-3409.97 -5034.26,-762.01 -8296.55,3280.47 -1125.05,1393.92 -943.91,1017.39 -857.74,3070.64z"/>
   <path class="fil13" d="M112290.09 117766.21l9659.52 -11036.97c701.9,-895.73 805.02,-1068.52 1595.12,-1731.5 1606.74,-1348.05 443.57,417.99 1616.01,-1743.12l-2994.22 -2700.04c-1939.14,764.68 -4005.76,3576.48 -5109.77,5142.55l-2879.47 3778.51c-1284.16,1538.15 -3421.87,4009.5 -3846.74,5787.31 719.32,976.73 1098.84,1256.11 1959.55,2503.26z"/>
  </g>
  <g id="_1846111712208">
   <path class="fil14" d="M44807 80426.1c-11737.91,1609.4 -8698.38,19567.65 -6982.55,28433.33 884.11,4567.81 882.24,7331.59 1105.6,11923.39l2982.08 -213.61c6284.39,-1583.82 17404.24,-3068.57 14734.15,-11750.76 -2449.75,-7965.85 -8984.32,605.38 -14180.42,-13607.35 2197.19,1845.77 2577.5,3592.03 5768.97,5402.63 2898.13,1644.25 6374.19,279.37 9904.52,7.68 2403.6,-1167.43 14083.74,-4600.12 16975.11,-5381.42l-871.06 -4085.97 -12050.27 2071.31 -3684.29 516.53c-637.08,-2746.87 -1652.57,-8133.35 -2103.82,-10761.97l-1367.51 -2166.6c-1159.11,-326.44 -2764.57,-895.89 -4490.43,-1073.53l-1385.29 2141.29c-1835.42,279.53 -4726.32,721.83 -4354.8,-1454.95z"/>
   <path class="fil14" d="M138410.69 106211.47c913.16,2578.74 -114.1,793.56 1804.19,2085.44 900.11,606.13 433.82,273.72 938.9,733.6 2835.03,2581.56 -889.76,-247.66 864.5,872.18l1891.76 93.38c6771.73,-26.06 11753.43,-589.5 9497.07,-9452.95 -1295.02,-5087.49 -10940.25,-3871.25 -16454.52,-3459.11 1207.45,4254.86 517.97,5888.09 924.14,8526.51l533.96 600.96z"/>
   <path class="fil14" d="M135508.78 129918.28c4787.39,59.8 14779.03,1338.03 17308.04,-2256.04 1278.71,-1817.36 1221.73,-6285.19 161.01,-8320.54 -1338.5,-2568.71 -3794.82,-2512.53 -7364.69,-2474.22l-559.22 8.79c-1802.6,2463.99 -2969.87,4093.81 -4871.53,6446.68 -892.27,1104.01 -1197.86,1643.46 -2423.02,3120.37 -1027.9,1239 -1779.88,1891.28 -2250.58,3474.94z"/>
   <path class="fil14" d="M126841.23 114652.4l-4581.66 6222.09c-1118.57,1258.77 -963.05,750.55 -1486.62,2704.46 1038.84,1222.53 1314.79,1621.66 3054.13,1825.08l8234.72 -10197.89c3091.65,-3649.16 3143.45,-3866.71 1816.72,-5957.8l-1748.29 -271.5c-1224.88,1197.7 -1474.89,1655.99 -2644.5,3062.77 -1004.34,1207.61 -1714.28,1449.78 -2644.5,2612.79z"/>
   <path class="fil14" d="M59392.79 111274.13c1175.42,1269 3872.2,3404.16 5379.87,3871.25 1123.94,-1276.32 1197.86,-1484.12 2040.4,-2615.46 -399.92,-1895.98 -335.87,-1336.43 -1797.59,-2677.6 -899.03,-824.79 -1390.74,-1311.53 -2272.51,-2156.53 -1515.23,-1452.29 -2714.52,-2751.09 -4309.8,-3940.63 -622.44,1415.25 -309.65,4449.29 -244.2,6501.15 583.26,226.82 829.01,675.36 1203.83,1017.83z"/>
  </g>
  <path class="fil5" d="M41912.13 121364.8l-2358.68 -202.63c543.51,8049.52 2183.39,17474.38 1975.27,25147.21 -208.44,7693.99 -2186.53,18250.04 -1933.69,25057.89l4293.17 1411.95c1455.55,-1088.77 1013.73,-819.78 1607.17,-2884.96 2541.54,-8843.99 5485.54,-17221.82 7473.18,-26444.85 1574.39,2556.14 1708.91,7201.13 2444.22,10553.65l3289.9 18747.75 4570 104.36c1482.73,-976.38 866.69,-6199.33 908.14,-8250.55 63.58,-3141.26 111.28,-6282.96 116.13,-9424.86 9.43,-6050.06 -21.8,-12054.16 -668.16,-17988.09l-3855.53 -16608.77c-25.58,-79.45 -318.64,-1196.47 -320.35,-1199.45 -829.01,-1529.99 145.81,-723.7 -1379.76,-1387.32 -2385.54,3813.96 -11184.18,3598 -16161.02,3368.68z"/>
  <path class="fil5" d="M163935.22 168040.97c-3845.23,-141.44 -3706.3,-2421.3 -6630.05,-5371.72 -1417.44,-1430.33 -1360.78,-771.12 -1275.08,-3054.17 2800.22,-2006.94 2002.88,-399.61 6545.11,3807.71 1462.67,-1332.1 3349.38,-4585.24 4597.33,-6405.58l3452.98 -4960.65c1618.31,-814.45 1175.42,-284.59 2165.6,118.96 1109.06,2953.4 -6087.58,10416.2 -8855.89,15865.45zm-10368.17 -19170.12c-3020.27,4662.62 -6367.43,11259.97 -1637.33,18081.47 3689.47,5320.71 8168.16,7599.07 17290.89,6551.08l1867.57 -555.13c593.76,-1192.21 407.48,-917.1 1419.03,-1746.74 12310.3,-10096.96 4751.14,-23209.61 -3615.43,-25825.07l830.6 -157.91 -3458.79 -620.41c-6280.14,-34.69 -9244.83,1564.64 -12696.54,4272.72z"/>
  <path class="fil5" d="M42042.27 76469c1578.93,1171.05 1265.5,1827.11 3724.16,2281.14 958.83,-755.57 367.3,-218.3 1154.85,-984.69 -88.48,-2685 -858.69,-2051.86 -1249.94,-4746.61 2178.33,369.97 687.45,-50.53 2624.89,828.25l-569.13 -2784.03c2106.8,244.36 2986.66,675.52 5593.8,268.55 893.86,-1549.92 1508.67,-879.9 2190.47,-3747.12 -1458.58,-3601.58 -8891.9,-6578.21 -12241.75,-3636.91 -5224.47,4587.27 -3907.01,6877.99 -1227.34,12521.4z"/>
  <path class="fil5" d="M112811.48 69970.2l1170.89 739.89c2052.77,500.34 3732.32,137.02 5479.85,-269.98l-593.6 2661.13c1934.61,-235.41 779.44,-256.46 2625.68,-491.39 -265.57,3334.3 -1824.6,1759.75 -822.45,4846.23l1278.39 822.29c1239.76,-722.94 1376.94,-883.79 2281.78,-1338.03 1093.82,-1667.65 2290.57,-2914.49 2984.47,-5349.91l-487.65 -921.47c-4534.87,790.26 -6432.12,-1564.36 -10647.87,-2126.89 -3798.88,-507.11 -3112.86,350.95 -3295.55,688.41l26.06 739.73z"/>
  <g id="_1846111717200">
   <path class="fil15" d="M36977.54 173925.12c1417.28,-1307.23 -75.51,-432.55 1522.27,-722.42 82.71,-158.07 196.5,-584.37 239.19,-478.42 39.75,98.27 180.67,-353.93 232.15,-437.88 88.68,-144.74 609,-900.74 623.88,-919.12 -252.84,-6807.85 1725.26,-17363.89 1933.69,-25057.89 208.12,-7672.83 -1431.76,-17097.69 -1975.27,-25147.21l2358.68 202.63 0 -795.59 -2982.08 213.61c-223.36,-4591.8 -221.49,-7355.58 -1105.6,-11923.39 -1715.83,-8865.68 -4755.36,-26823.93 6982.55,-28433.33l959.43 -1675.96c-2458.66,-454.03 -2145.23,-1110.09 -3724.16,-2281.14 -5297.79,828.57 -9638.99,-831.68 -14228.44,1951.24 -3382.8,2051.38 -5778.72,5040.38 -5932.85,10774.07 -527.99,19634.05 5.65,46077.19 4.58,66539.98 -0.64,13189.68 1968.35,17352.56 15091.98,18190.84z"/>
   <path class="fil15" d="M63388.81 173537.61l80.68 318.32 37286.59 -23.08 -151.94 -687.77c-1045.64,-6864.35 544.78,-16524.5 226.66,-23739.8 -4347.8,-435.09 -9263.25,522.03 -12997.64,-1410.55 -3041.44,-1574.07 -5182.58,-4091.62 -6151.15,-8300.6l-171.24 -3706.61 244.08 311.56c-986.28,2235.78 -771.76,795.75 -391.77,3451.55l-13568.6 -50.85c60.43,5642.14 591.09,11309.26 577.29,17143.2 -11.94,5021.25 -571.48,11866.46 -83.67,16575.82l-4899.3 118.8z"/>
   <path class="fil15" d="M103968.28 91126.21l-20072.61 -45.2 -543.99 2921.85c3134.22,2046.21 15466.17,4207.16 19437.87,4195.82 293.82,-1257.02 4052.07,-5683.4 4976.37,-6785.06 3348.74,-3991.32 4036.2,-7134.49 14320.23,2321.96 2890.61,2657.99 4199.75,2355.86 5502.17,6682.89 -1587.28,1282.96 -1471.63,1186.56 -2427.59,2836.15 -1172.44,2161.11 -9.27,395.07 -1616.01,1743.12 -790.1,662.99 -893.22,835.77 -1595.12,1731.5l-9659.52 11036.97 -825.91 1345.39 2602.93 1744.87 6448.11 -4485.26c2559.92,-1976.82 3477.29,-4051.59 6470.71,-5433.9 1482.88,-2624.09 4370.2,-4760.37 6077.23,-8061.89 1322.15,-2049.19 961.5,-3320.81 541.48,-5957.92l-2165.8 -6763.45c-425.51,-563.6 -1145.15,-2137.08 -1655.55,-3019.76 -1012.66,-1751.44 -1221.1,-1555.89 -2076.64,-3360.84 -1018.31,-328.19 -537.26,-82.55 -1252.33,-975.3 -1470.79,-1161.93 -2186.05,-1797.15 -4222.67,-1748.77 -2069.4,661.99 -3395.05,405.37 -4997.85,-229.48l-593.12 -1744.24 -3947.99 287.69c-1793.05,1748.01 -3427.56,3174.88 -4903.4,5422.76 -1178.68,1795.08 -2489.58,4693.21 -3821,6340.09z"/>
   <path class="fil15" d="M105633.39 173416.94l329.3 437.08c6908.59,162.44 23422.11,-947.21 28987.02,313.15l2610.76 -703.17 -2290.89 404.14 -415.92 -2108.95c-2254.01,-1066.97 -11042.26,-19076.26 -12800.3,-22474.78l-6643.06 -10.5 -3207.62 -3.46c-2439.69,80.37 -813.81,-56.81 -1541.29,629.25 2070.83,-623.6 2631.93,-575.26 4635.13,-134.83l-4777.96 23525.07 -4885.18 127z"/>
   <path class="fil15" d="M133387.26 150517.13c87.25,-1610 -361.29,-206.37 410.11,-1113.71l2207.7 428.93c1721.16,3054.65 6005.98,19026.33 7549.93,23321.05l-1023.32 641.3c4285.13,161.05 24470.1,920.08 26688.93,-291.31 -9122.73,1047.99 -13601.42,-1230.37 -17290.89,-6551.08 -4730.1,-6821.5 -1382.94,-13418.85 1637.33,-18081.47 -3369.47,975.3 -13627.16,389.1 -17777.15,389.1l-3056.52 72.49 653.87 1184.69z"/>
   <path class="fil15" d="M55037.52 80813.3l1367.51 2166.6c3413.91,-2325.26 5509.06,7177.78 5788.11,10245.44l12050.27 -2071.31 2010.4 -107.06c954.73,-1116.38 1191.73,-1948.89 3074.54,-1409.12l2205.99 262.58 -178.6 -3329.13 -3965.26 -5751.23c-4564.23,-5825.31 -16092.75,-4088 -24529.74,-4172.74l25.1 373.98 4440.66 425.19c-780.51,2167.87 -61.67,2596 -2288.98,3366.81z"/>
   <path class="fil15" d="M166263.59 144598.13l3458.79 620.41 3694.52 1017.08c-1012.98,-3938.88 -371.84,-20199.88 -371.84,-25428.61 0,-8587.22 1516.82,-16304.92 -4224.86,-20805.54 -501.46,7130.51 -88.96,15731.1 -88.96,23023.14 0,7054.24 1203.35,16861.16 -2467.65,21573.52z"/>
   <path class="fil15" d="M43908.72 173438.1l20.41 504.12 14058.32 -112.51 715.22 -1078.9 -3289.9 -18747.75c-1159.27,1357.64 -2691.45,7984.55 -3245.62,9859.32 -544.94,1843.9 -2161.27,8070.25 -3065.47,9479.21l-5192.96 96.52z"/>
   <path class="fil15" d="M112785.42 69230.47c182.69,-337.46 -503.33,-1195.51 3295.55,-688.41 4215.75,562.53 6113,2917.15 10647.87,2126.89l487.65 921.47c1603.28,-2693.8 1475.05,-2535.89 432.55,-5835.06 -2250.7,-2174.44 -3734.54,-4335.82 -8431.97,-3291.93 -3458.31,768.62 -6487.02,2389.64 -7694.79,4566.54 435.37,1417.32 197.14,974.23 1263.15,2200.49z"/>
  </g>
  <path class="fil16" d="M168820.2 100001.47c5741.68,4500.61 4224.86,12218.32 4224.86,20805.54 0,5228.73 -641.14,21489.73 371.84,25428.61 3057.43,2753.12 2952.92,1503.61 5430.28,5397.62 1567.31,2463.52 2381.76,5727.24 2018.08,9109.88 -651.81,6061.36 -4845.27,10719.56 -9777.08,12205.15l-1867.57 555.13c-2218.84,1211.39 -22403.8,452.36 -26688.93,291.31l73.44 887.1c-861.83,1618.67 -2028.78,1927.25 -4160.69,2550.33 1770.29,2454.92 2672.95,-503.01 5012.02,2660.06 -3233.09,438.04 -9715.26,1864.59 -12134.37,-491.11 -950.67,-713.04 -754.49,1009.83 -801.24,-956.48 1569.38,-1255.31 3415.74,-2514.52 4428.88,-4277.42 -5564.91,-1260.36 -22078.43,-150.71 -28987.02,-313.15l371.8 1230.21c262.27,258.8 780.55,73.28 849.46,1738.11 200.12,4825.22 -11618.47,2169.86 -12764.06,1642.34 842.97,-1340.05 4542.07,-2724.23 6204.19,-3293.96l132.01 -1337.87 -37286.59 23.08 121.5 1155.65c2449.23,1236.13 4965.51,2084 6074.05,3453.1 -3114.88,1652.09 -9279.37,1118.61 -12555.78,-263.34 -221.76,-1656.99 -489.04,-2809.01 878.18,-3459.43l0 -912.2 -14058.32 112.51 -199.8 923.22 4955.16 4707.97c-958.03,506.15 1386.52,439.15 -1725.85,491.39 -2729.56,45.99 -8605.4,-2546.39 -10502.49,-3816.3l521.39 -2323.39c-13123.64,-838.28 -15092.62,-5001.15 -15091.98,-18190.84 1.07,-20462.78 -532.57,-46905.92 -4.58,-66539.98 154.13,-5733.68 2550.05,-8722.69 5932.85,-10774.07 4589.45,-2782.91 8930.65,-1122.67 14228.44,-1951.24 -2679.67,-5643.41 -3997.13,-7934.14 1227.34,-12521.4 3349.86,-2941.3 10783.18,35.33 12241.75,3636.91 -681.8,2867.22 -1296.61,2197.19 -2190.47,3747.12l-460.16 5315.7c8436.99,84.74 19965.51,-1652.57 24529.74,4172.74l3965.26 5751.23 83.03 -45598.02c-3536.01,-2778.54 -15823.56,-7955.03 -21322.87,-9327.59 -2561.95,-639.43 -2289.5,-77.38 -2819.2,-2082.93 -1456.07,2950.25 -1366.59,4004.85 -4080.64,6108.94 -1613.78,1251.05 -4501.25,2024.52 -7239.29,1628.22 -5329.34,-771.4 -8347.11,-5052.64 -7880.15,-11235.18 -902.81,1454.52 -563.8,935 -562.21,2978.06 -18834.25,257.37 -38361.56,14872.25 -35727.24,34829.28 2111.02,15993.84 25553.38,32903.98 14936.9,52236.54 -6047.39,11012.46 -18360.84,20859.21 -10522.94,38773.85 3593.78,8214.31 5986.2,9499.9 11681.25,15467.44 8603.69,9015.23 31076.71,17061.25 43360.96,19815.79 32424.65,7270.84 96198.78,7409.29 120905.88,-13703.27 16640.51,-14219.49 15472.61,-28509.91 6446.24,-51812.27 -3149.74,-8131.28 -8704.15,-17085.16 -11092.83,-24967.65 -3326.78,-10978.09 3707.25,-19196.29 6325.69,-28220 2640.88,-261.51 2274.69,-667.36 2805.23,-1075.76 -11782.51,1411.15 -9338.57,-14381.14 736.11,-10890.04 473.53,-6208.92 1976.34,-12242.99 2307.68,-19077.81 306.19,-6320.8 -192.92,-13411.33 -1816.45,-19310.88 -8067.22,-29313.38 -39925.08,-22524.67 -55021.96,-12672.55 -8579.82,5599.13 -10684.75,8673.51 -16803.71,14761.61l-4661.03 5886.02c8586.58,917.57 22124.27,116.93 31253.44,116.93 10890.52,0 21537.27,-2078.51 25180.79,7074.53 2060.33,5175.69 730.3,53655.85 991.77,63726.91z"/>
  <path class="fil17" d="M104186.59 129954.25c-4695.4,-74.4 -10966.47,-328.83 -8468.54,-9597.21 688.21,-2553.95 2506.05,-3391.15 5408.28,-3482.02 3095.59,-97 4108.25,776.14 5930.14,2834.12l-2869.89 10245.12zm-2528.96 -21344.07c-86.18,-2053.25 -267.32,-1676.72 857.74,-3070.64 3262.29,-4042.48 4225.66,-6690.45 8296.55,-3280.47 4093.01,3428.51 2717.79,3557.5 110.33,7291.88 -2432.29,3483.58 -3690.26,4045.03 -6721.52,1510.85 -1302.06,-1088.65 -1737.79,-1310.57 -2543.09,-2451.62zm1131.94 -10411.5c-1394.36,2203.8 -1730.55,1429.53 -3931.84,4262.85 -1073.73,1381.99 -2013.07,2747.15 -3390.64,3954.12l654.63 -7364.53c-2351.32,-562.69 -4745.17,-1108.26 -7067.61,-1723.03 -4449.13,-1177.65 -3351.89,968.86 -7181.24,-109.57l181.3 24090.74c182.69,1158.47 -274.68,26.22 537.7,1924.86l1897.13 16.79 2239.68 1986.25 -169.96 12282.21 -1953.59 1998.94 -2923.12 175.81c968.58,4208.99 3109.71,6726.53 6151.15,8300.6 3734.38,1932.58 8649.84,975.46 12997.64,1410.55 318.12,7215.3 -1272.3,16875.45 -226.66,23739.8l4335.66 -117.88c964.16,-10209.15 611.03,-14580.94 3425.81,-24403.38 1409,-4916.57 4276.06,-17522.24 7158.32,-20498.55 458.33,866.05 2142.73,9241.69 2426.99,10816.12 361.29,2002.24 -1987.68,7370.82 -2540.62,10332.53l6643.06 10.5c1758.04,3398.52 10546.29,21407.81 12800.3,22474.78l4085.01 -2072.9c237,-1433.59 -1206.81,-4838.07 -1934.45,-6193.21 -2428.98,-2287.59 -11440.95,-26221.37 -9924.77,-31043.77l2208.33 -2711.82 10011.74 -12785.74c1287.62,-2375.47 3674.75,-2956.66 2718.74,-7049.07 -1754.26,-1119.84 1970.53,1709.38 -864.5,-872.18 -505.08,-459.88 -38.79,-127.47 -938.9,-733.6 -1918.3,-1291.87 -891.04,493.3 -1804.19,-2085.44l-987.83 -528.31c-1501.74,843.45 -228.37,-115.82 -1265.06,850.06 -143.15,133.4 -563.32,742.4 -744.43,964 -663.62,811.46 -908.46,1030.09 -1534.84,1751.12 1326.73,2091.08 1274.93,2308.63 -1816.72,5957.8l-8234.72 10197.89c-1739.34,-203.42 -2015.29,-602.55 -3054.13,-1825.08 523.58,-1953.9 368.06,-1445.68 1486.62,-2704.46l4581.66 -6222.09c-1704.85,628.29 -810.07,258.53 -2343.64,1259.09 -1169.3,762.93 -831.56,551.39 -1927.69,1089.09 -1221.41,1670.91 -2470.76,1939.78 -3919.47,4072.96l-3400.7 78.78c-404.94,475.4 -1005.26,1112.16 -1468.44,1599.81l-1025.07 1154.85c-2880.07,-25.42 -3755.07,-1525.26 -3462.05,-4331.25l2170.02 -464.14 825.91 -1345.39c-860.72,-1247.16 -1240.23,-1526.53 -1959.55,-2503.26 424.87,-1777.81 2562.58,-4249.17 3846.74,-5787.31l2879.47 -3778.51c1104.01,-1566.08 3170.62,-4377.87 5109.77,-5142.55l2994.22 2700.04c955.97,-1649.59 840.31,-1553.19 2427.59,-2836.15 -1302.42,-4327.03 -2611.56,-4024.9 -5502.17,-6682.89 -10284.03,-9456.45 -10971.48,-6313.28 -14320.23,-2321.96 -924.3,1101.66 -4682.55,5528.03 -4976.37,6785.06z"/>
  <path class="fil18" d="M67372.77 118350.69c211.42,-657.02 -260.24,-985.84 1617.72,-964 1662.91,19.14 1538.15,673.49 1784.26,972.32 2681.86,721.03 2301.87,-341.52 3183.16,1339.14 -1397.35,1077.15 -4365.18,702.81 -7446.65,813.02l495.97 -1772.8c33.58,-279.06 247.98,-254.59 365.55,-387.67zm-7599.5 2232.2l3855.53 16608.77c5245.08,-265.09 13706.42,856.5 18126.06,-892.59l-244.08 -311.56c2034.27,-2724.39 1290.64,-8868.18 1081.09,-12753.39 -812.38,-1898.64 -355.01,-766.39 -537.7,-1924.86l-750.55 -416.87 -4623.67 -591.57c-154.13,-2257.11 -390.06,-2485.2 -1564.84,-3826.65 -2741.5,-694.22 -5872.1,-392.88 -8723.6,-263.22l-783.06 154.45c-1391.38,1538.62 -1411.47,1307.55 -1502.02,4009.06l-4333.16 208.44z"/>
  <path class="fil19" d="M70345.62 114119.87l1214.17 1619.43c-931.5,213.01 -1513.48,399.61 -2557.85,367.14 -2353.83,-73.01 -1575.35,164 -2192.34,-799.85l-418.11 904.36c2851.5,-129.66 5982.1,-431 8723.6,263.22 1174.79,1341.45 1410.71,1569.54 1564.84,3826.65l4623.67 591.57 176.09 -23658.47c-5521.91,1102.73 -12984.55,4909.65 -19283.26,5615.6 37.36,3983 1701.55,4207 3726.39,6100.78l4422.79 5169.57z"/>
  <path class="fil20" d="M104939.81 173027.2l540.72 -134.51 5180.86 -22992.98c727.48,-686.06 -898.4,-548.88 1541.29,-629.25l3207.62 3.46c552.94,-2961.71 2901.91,-8330.28 2540.62,-10332.53 -284.27,-1574.43 -1968.66,-9950.07 -2426.99,-10816.12 -2882.26,2976.31 -5749.32,15581.98 -7158.32,20498.55 -2814.78,9822.44 -2461.65,14194.22 -3425.81,24403.38z"/>
  <path class="fil21" d="M137004.24 163493.09c-870.31,-4303.36 -3272.63,-8889.03 -3616.98,-12975.95l-653.87 -1184.69 3056.52 -72.49c-565.35,-3335.89 -4821.92,-15592.05 -1740.3,-18178.78 107.66,-90.43 528.47,-434.62 640.51,-532.41l674.13 -627.66 -6076.44 -183.61 -2208.33 2711.82c-1516.18,4822.4 7495.78,28756.19 9924.77,31043.77z"/>
  <path class="fil22" d="M41708.87 28878.93l11434.66 1005.3c2664.63,-9266.67 -11771.93,-11887.03 -11434.66,-1005.3z"/>
  <path class="fil23" d="M81364.21 94710.56l115.5 2523.35 -176.09 23658.47 750.55 416.87 -181.3 -24090.74c3829.35,1078.43 2732.11,-1068.08 7181.24,109.57 2322.44,614.77 4716.29,1160.34 7067.61,1723.03l-654.63 7364.53c1377.57,-1206.97 2316.91,-2572.13 3390.64,-3954.12 2201.29,-2833.32 2537.48,-2059.06 3931.84,-4262.85 -3971.7,11.34 -16303.65,-2149.61 -19437.87,-4195.82l-847.71 -179.39c-428.33,856.34 671.3,374.34 -1139.77,887.1z"/>
  <path class="fil24" d="M171088.18 172948.27c4931.81,-1485.59 9125.28,-6143.79 9777.08,-12205.15 363.68,-3382.64 -450.77,-6646.36 -2018.08,-9109.88 -2477.36,-3894 -2372.85,-2644.5 -5430.28,-5397.62l-3694.52 -1017.08 -830.6 157.91c8366.57,2615.46 15925.73,15728.11 3615.43,25825.07 -1011.55,829.65 -825.27,554.53 -1419.03,1746.74z"/>
  <path class="fil25" d="M181453.68 63011.68c-600.04,4483.07 1031.2,5533.09 5339.85,5271.58 802.04,-1613.46 2671.67,-3597.36 841.14,-5795.95 -1953.94,-2346.79 -4414.48,-1144.19 -6180.99,524.37z"/>
  <path class="fil26" d="M58073.15 117996.13c1525.57,663.62 550.75,-142.67 1379.76,1387.32 1.71,2.98 294.77,1120 320.35,1199.45l4333.16 -208.44c90.55,-2701.51 110.64,-2470.44 1502.02,-4009.06l-835.77 -1220.02c-1507.67,-467.08 -4204.45,-2602.25 -5379.87,-3871.25 -1793.97,890.4 -995.39,-1964.89 44.4,5097.55l-1364.05 1624.44z"/>
  <path class="fil27" d="M62193.14 93225.33c-279.06,-3067.66 -2374.2,-12570.7 -5788.11,-10245.44 451.25,2628.63 1466.73,8015.1 2103.82,10761.97l3684.29 -516.53z"/>
  <path class="fil28" d="M53143.53 29884.22l-11434.66 -1005.3c989.94,2654.09 2081.54,4503.76 5257.97,4759.14 3711.15,298.19 4822.99,-1499.24 6176.7,-3753.84z"/>
  <path class="fil29" d="M114067.11 120856.46l-285.82 1895.66c463.18,-487.65 1063.51,-1124.42 1468.44,-1599.81l3400.7 -78.78c1448.71,-2133.18 2698.05,-2402.05 3919.47,-4072.96 1369.58,-1424.8 1224.99,-1801.17 2221.34,-3022.14 934.04,-1144.63 182.22,87.29 1253.44,-1482.88 135.11,-198.21 687.29,-1157.52 941.24,-1558.24 -2993.42,1382.31 -3910.79,3457.08 -6470.71,5433.9l-6448.11 4485.26z"/>
  <path class="fil30" d="M131322.07 179401.07c2419.12,2355.7 8901.28,929.15 12134.37,491.11 -2339.07,-3163.06 -3241.72,-205.13 -5012.02,-2660.06l-7122.36 2168.95z"/>
  <path class="fil31" d="M81534.33 89900.42l-2205.99 -262.58 -1034.94 484.51c1585.69,1228.97 349.4,324.77 2270.32,891.04l1940.26 2810.09 847.71 179.39 543.99 -2921.85c-247.03,-899.47 -100.1,-568.61 -291.27,-941.88 -377.64,-737.82 -456.26,-794.95 -739.73,-1186.4 -1070.91,615.72 -162.76,-209.35 -1330.35,947.69z"/>
  <circle class="fil32" cx="4630.27" cy="117162.56" r="4630.27"/>
  <circle class="fil33" cx="4630.27" cy="117162.56" r="3080.36"/>
  <circle class="fil32" cx="184387.69" cy="64678.13" r="5820.53"/>
  <circle class="fil33" cx="184387.69" cy="64678.13" r="3872.2"/>
  <path class="fil25" d="M42133.3 23905.66c-1102.69,8238.74 1895.06,10168.37 9813.33,9687.84 1473.93,-2965.17 4909.81,-6611.03 1545.75,-10651.53 -3590.8,-4312.75 -8112.7,-2102.74 -11359.07,963.68z"/>
  <circle class="fil32" cx="47525.26" cy="26968.17" r="10696.67"/>
  <circle class="fil33" cx="47525.26" cy="26968.17" r="7116.13"/>
  <circle class="fil34" cx="166359.58" cy="159374.09" r="14783.65"/>
  <circle class="fil32" cx="164366.28" cy="158958.79" r="14783.65"/>
 </g>
</svg>
