<?xml version="1.0" encoding="UTF-8"?>
<!DOCTYPE svg PUBLIC "-//W3C//DTD SVG 1.1//EN" "http://www.w3.org/Graphics/SVG/1.1/DTD/svg11.dtd">
<!-- Creator: CorelDRAW 2017 -->
<svg xmlns="http://www.w3.org/2000/svg" xml:space="preserve" width="4.1363mm" height="4.5185mm" version="1.1" style="shape-rendering:geometricPrecision; text-rendering:geometricPrecision; image-rendering:optimizeQuality; fill-rule:evenodd; clip-rule:evenodd"
viewBox="0 0 21.33 23.3"
 xmlns:xlink="http://www.w3.org/1999/xlink">
 <defs>
  <style type="text/css">
   <![CDATA[
    .fil3 {fill:#144685}
    .fil5 {fill:#ECEBD1}
    .fil4 {fill:#EDF1ED}
    .fil0 {fill:#F5F4EF}
    .fil2 {fill:#F6F5EA}
    .fil1 {fill:#F9DD4D}
   ]]>
  </style>
 </defs>
 <g id="Layer_x0020_1">
  <metadata id="CorelCorpID_0Corel-Layer"/>
  <g id="_1810388739920">
   <path class="fil0" d="M5.26 16.29c0.01,-0.19 -0.06,-0.74 -0.16,-0.85 -0.17,-0.19 -0.39,0.29 -0.82,-1.19 -0.08,-0.28 -0.11,-0.53 -0.27,-0.74 -0.34,0.08 -0.8,1 -0.36,1.84 0.25,0.47 0.87,0.87 1.61,0.94z"/>
   <path class="fil0" d="M16.08 16.25c2.03,-0.09 2.1,-2.48 1.16,-2.75 -0.18,0.23 -0.06,1.12 -0.72,1.71l-0.28 0.22c-0.11,0.14 -0.16,0.61 -0.16,0.83z"/>
  </g>
  <path class="fil1" d="M6.81 20.54l0.02 0.03c-0.09,0.06 -0.13,0.16 -0.18,0.26l-0.1 0.34c-0.07,0.48 -0.06,0.28 -0.06,0.82 0,0.18 0.03,0.51 0.08,0.69 0.04,0.12 0.05,0.24 0.14,0.41 0.07,0.11 0.11,0.15 0.25,0.19 0.03,0.01 0.07,0.01 0.11,0.02l0.15 0c0.05,-0 0.1,-0.01 0.14,-0.02 0.25,-0.05 0.34,-0.04 0.64,-0.13l0.44 -0.11c0.09,-0.02 0.1,-0.03 0.17,-0.05 0.11,-0.03 0.23,-0.05 0.35,-0.09 0.14,-0.06 0.39,-0.11 0.5,-0.16 0.13,-0.06 0.22,-0.05 0.33,-0.13 -0.01,-0.07 -0.02,-0.06 -0.02,-0.15 -0.01,-0.36 0.02,-0.97 -0,-1.26 -0.09,-0.08 -1.18,-0.42 -1.4,-0.48 -0.32,-0.09 -0.85,-0.22 -1.19,-0.23 -0.12,-0 -0.32,0.05 -0.38,0.03z"/>
  <path class="fil1" d="M11.51 21.21l-0 1.3c-0,0.14 0.01,0.13 0.11,0.16l1.64 0.48c0.05,0.01 0.06,0.02 0.1,0.03l0.56 0.1c0.03,0.01 0.07,0.01 0.11,0.02l0.23 0c0.12,-0.01 0.23,-0.06 0.29,-0.14 0.18,-0.23 0.2,-0.57 0.24,-0.82 0.01,-0.08 0,-0.16 0.01,-0.24 0.05,-0.26 -0.02,-1.32 -0.32,-1.53l0.02 -0.04c-0.08,0.02 -0.27,-0.03 -0.4,-0.03 -0.69,0.01 -1.99,0.48 -2.6,0.71z"/>
  <path class="fil1" d="M10.13 21.23l-0.05 0.05c-0.04,0.04 0.01,-0.02 -0.03,0.03l-0.07 0.15c-0.02,0.06 -0.03,0.17 -0.03,0.26 0,0.18 -0.01,0.41 0.01,0.55 0.02,0.11 0.03,0.12 0.07,0.2 0.07,0.12 0.22,0.19 0.37,0.19 0.21,0 0.15,0.04 0.39,0 0.05,-0.01 0.09,-0 0.14,-0 0.52,-0.02 0.42,-0.72 0.42,-1.01 0,-0.28 -0.14,-0.34 -0.15,-0.44 -0.14,-0.01 -0.11,-0.12 -0.55,-0.13 -0.33,-0.01 -0.33,0.03 -0.54,0.13z"/>
  <g id="_1810388747696">
   <path class="fil2" d="M12.21 16.53c0.05,-0.11 0.51,-0.22 0.65,-0.23 0.58,-0.05 0.92,0.36 0.94,0.82 0.01,0.23 -0.13,0.08 -0.21,0.02 -0.06,-0.04 -0.3,-0.18 -0.38,-0.05 -0,0 -0.02,0.03 -0.02,0.04 -0.01,0.03 -0.03,0.05 -0.04,0.07 -0.03,0.05 -0.06,0.09 -0.09,0.13 -0.07,0.1 -0.12,0.16 -0.2,0.24 -0.37,0.43 -1.18,0.86 -1.82,0.8 0.04,-0.1 0.83,-0.54 0.97,-0.66 0.13,-0.11 0.76,-0.78 0.71,-0.92 -0.06,-0.15 -0.46,-0.1 -0.53,-0.26zm-5.98 -0.67c0.02,0.5 0.26,1.33 0.42,1.76 0.3,0.79 0.76,1.44 1.41,1.89 0.22,0.15 0.44,0.26 0.72,0.38 1.06,0.44 2.7,0.4 3.75,-0.02 1.04,-0.42 1.72,-1.19 2.15,-2.24 0.2,-0.5 0.36,-1.21 0.4,-1.81 -1.07,0.04 -2.18,-0.01 -2.89,-0.56 -0.65,-0.5 -0.72,-0.93 -1.02,-1.58 -0.11,-0.23 -0.21,-0.36 -0.52,-0.35 -0.27,0.01 -0.38,0.19 -0.48,0.38 -0.1,0.2 -0.18,0.41 -0.27,0.61 -0.41,0.94 -0.97,1.4 -1.98,1.5 -0.55,0.05 -1.13,0.02 -1.69,0.06z"/>
   <path class="fil2" d="M5.16 11.9l2.37 -0.26c-0.86,-0.33 -1.33,-0.04 -2,0.06 0.36,-0.67 1.64,-0.85 2.56,-0.53 0.41,0.15 0.73,0.44 1.07,0.65 0.38,0.23 0.79,0.4 1.34,0.37 0.9,-0.06 1.8,-0.67 2.35,-1.07 0.59,-0.43 1.04,-0.83 1.86,-0.53 0.16,0.06 0.46,0.2 0.56,0.29 -0.35,0.2 -0.77,-0.08 -1.28,0.15 -0.3,0.14 -0.68,0.48 -0.83,0.67l2.9 0.15c0.02,-0.38 -0.02,-0.89 -0.13,-1.22 -0.1,-0.32 -0.29,-0.63 -0.42,-0.93 -0.13,0.01 -1.22,0.26 -1.47,0.31 -1.84,0.37 -2.83,0.07 -4.67,-0.37 -0.83,-0.2 -2.29,-0.58 -3.1,-0.23 -0.87,0.38 -1.05,1.62 -1.11,2.5z"/>
   <path class="fil2" d="M6.63 12.32c-0.64,0.05 -1.05,0.08 -1.31,0.51 -0.61,1.01 0.4,2.9 2.61,2.32 0.67,-0.18 0.98,-0.37 1.33,-0.92 0.33,-0.52 0.35,-1.28 -0.22,-1.61 -0.19,-0.11 -0.45,-0.17 -0.7,-0.22 -0.5,-0.09 -1.2,-0.12 -1.71,-0.08z"/>
   <path class="fil2" d="M11.99 12.72c-0.14,0.46 -0.11,1.15 0.08,1.55 0.18,0.38 0.51,0.66 0.97,0.81 0.67,0.21 1.64,0.14 2.3,-0.14 0.25,-0.11 0.38,-0.19 0.51,-0.39 0.23,-0.36 0.39,-0.94 0.23,-1.44 -0.08,-0.23 -0.21,-0.4 -0.36,-0.52 -0.64,-0.46 -2.3,-0.32 -3.07,-0.11 -0.16,0.04 -0.54,0.16 -0.65,0.24z"/>
  </g>
  <path class="fil3" d="M6.23 15.85c0.56,-0.04 1.14,-0.01 1.69,-0.06 1,-0.09 1.57,-0.56 1.98,-1.5 0.09,-0.2 0.17,-0.41 0.27,-0.61 0.1,-0.19 0.21,-0.37 0.48,-0.38 0.31,-0.01 0.42,0.13 0.52,0.35 0.3,0.65 0.37,1.08 1.02,1.58 0.71,0.55 1.83,0.61 2.89,0.56 -0.04,0.6 -0.2,1.31 -0.4,1.81 -0.43,1.06 -1.11,1.83 -2.15,2.24 -1.06,0.42 -2.69,0.46 -3.75,0.02 -0.28,-0.12 -0.5,-0.23 -0.72,-0.38 -0.65,-0.45 -1.11,-1.09 -1.41,-1.89 -0.16,-0.43 -0.4,-1.26 -0.42,-1.76zm4.15 -15.85l0.51 0c0.26,0 0.53,0.05 0.79,0.05l0.1 0.02c0.18,-0.01 0.81,0.1 1,0.15 0.42,0.1 0.86,0.18 1.26,0.33 0.31,0.12 0.63,0.22 0.93,0.37l1.32 0.7c0.23,0.15 0.47,0.3 0.69,0.47l0.94 0.78c0.42,0.43 0.73,0.73 1.11,1.2l0.92 1.38c0.03,0.05 0.03,0.04 0.06,0.09 0.02,0.04 0.03,0.06 0.04,0.09 0.04,0.07 0.07,0.11 0.1,0.19 0.04,0.07 0.07,0.13 0.1,0.19l0.5 1.22c0.19,0.58 0.35,1.19 0.45,1.84 0.01,0.09 0.02,0.16 0.03,0.26l0.05 0.54c0.01,0.08 0,0.17 0.02,0.26 0.05,0.45 0.01,1.19 -0.04,1.67 -0.04,0.32 -0.1,0.68 -0.16,0.99l-0.3 1.14c-0.06,0.21 -0.15,0.42 -0.23,0.63 -0.09,0.23 -0.24,0.59 -0.36,0.8 -0.02,0.04 -0.03,0.06 -0.05,0.09 -0.02,0.04 -0.03,0.06 -0.05,0.1l-0.3 0.54 -0.96 1.35c-0.03,0.03 -0.04,0.04 -0.07,0.08l-0.33 0.38c-0.14,0.15 -0.55,0.56 -0.73,0.7l-0.16 0.14c-0.03,0.03 -0.04,0.04 -0.08,0.07 -0.4,0.3 -0.62,0.48 -1.08,0.79 -0.12,0.08 -0.22,0.14 -0.35,0.22 -0.04,0.02 -0.05,0.03 -0.09,0.05 -0.38,0.2 -0.75,0.41 -1.15,0.57 -0.1,0.04 -0.2,0.09 -0.3,0.12 -0.08,0.02 -0.27,-0.03 -0.4,-0.03 -0.69,0.01 -1.99,0.48 -2.6,0.71 -0.1,0.03 -0.17,0.01 -0.29,0.02 -0.14,-0.01 -0.11,-0.12 -0.55,-0.13 -0.33,-0.01 -0.33,0.03 -0.54,0.13l-0.05 0c-0.05,0 -0.11,0 -0.17,0 -0.08,-0 -0.06,-0.01 -0.13,-0.02 -0.09,-0.08 -1.18,-0.42 -1.4,-0.48 -0.32,-0.09 -0.85,-0.22 -1.19,-0.23 -0.12,-0 -0.32,0.05 -0.38,0.03 -0.19,-0.05 -0.67,-0.27 -0.86,-0.37l-0.21 -0.11c-0.04,-0.02 -0.07,-0.04 -0.11,-0.06 -0.03,-0.01 -0.02,-0.01 -0.05,-0.03l-0.43 -0.25c-0.34,-0.2 -1.09,-0.7 -1.35,-0.96l-0.33 -0.29c-0.04,-0.04 -0.04,-0.03 -0.08,-0.06 -0.15,-0.12 -0.46,-0.45 -0.61,-0.62 -0.05,-0.06 -0.1,-0.1 -0.15,-0.16 -0,-0 -0.01,-0.02 -0.02,-0.02l-0.11 -0.14c-0.18,-0.23 -0.37,-0.44 -0.54,-0.69 -0.12,-0.18 -0.26,-0.35 -0.37,-0.55 -0.15,-0.26 -0.31,-0.52 -0.45,-0.78l-0.2 -0.41c-0.25,-0.5 -0.4,-1.03 -0.58,-1.56 -0.02,-0.05 -0.02,-0.08 -0.03,-0.13l-0.19 -0.85 -0.14 -1.09c-0.01,-0.08 -0.02,-0.24 -0.02,-0.42l0 -0.79 0.11 -1.11c0.11,-0.69 0.26,-1.3 0.48,-1.96 0.11,-0.33 0.26,-0.67 0.4,-0.99 0.11,-0.23 0.23,-0.48 0.36,-0.7 0.28,-0.45 0.47,-0.78 0.8,-1.21 0.03,-0.04 0.04,-0.05 0.07,-0.08l0.7 -0.82c0.11,-0.11 0.2,-0.2 0.31,-0.31l0.48 -0.44c0.04,-0.04 0.04,-0.03 0.08,-0.07 0.04,-0.03 0.04,-0.04 0.08,-0.07l0.34 -0.26c0.3,-0.22 0.59,-0.44 0.91,-0.62l0.39 -0.23c0.07,-0.04 0.12,-0.06 0.2,-0.1l0.2 -0.11c0.08,-0.04 0.14,-0.06 0.21,-0.1 0.13,-0.06 0.28,-0.13 0.42,-0.19l1.12 -0.4c0.29,-0.1 0.95,-0.23 1.26,-0.28 0.22,-0.04 0.46,-0.05 0.67,-0.1l0.41 -0.02c0.07,-0 0.06,-0.02 0.15,-0.02 0.05,-0 0.1,0 0.15,0 0.07,-0.01 0.05,-0.01 0.11,-0.02zm-5.12 16.29c-0.74,-0.07 -1.36,-0.47 -1.61,-0.94 -0.44,-0.84 0.02,-1.77 0.36,-1.84 0.15,0.21 0.18,0.47 0.27,0.74 0.44,1.48 0.66,0.99 0.82,1.19 0.1,0.12 0.17,0.66 0.16,0.85zm10.83 -0.04c0,-0.22 0.05,-0.69 0.16,-0.83l0.28 -0.22c0.66,-0.59 0.54,-1.48 0.72,-1.71 0.95,0.27 0.87,2.66 -1.16,2.75zm-4.09 -3.53c0.11,-0.08 0.49,-0.2 0.65,-0.24 0.77,-0.21 2.42,-0.35 3.07,0.11 0.16,0.11 0.29,0.29 0.36,0.52 0.17,0.49 0,1.08 -0.23,1.44 -0.13,0.2 -0.25,0.28 -0.51,0.39 -0.66,0.28 -1.62,0.36 -2.3,0.14 -0.46,-0.15 -0.79,-0.42 -0.97,-0.81 -0.19,-0.4 -0.22,-1.09 -0.08,-1.55zm-5.35 -0.4c0.51,-0.04 1.21,-0.01 1.71,0.08 0.25,0.04 0.5,0.1 0.7,0.22 0.57,0.33 0.55,1.09 0.22,1.61 -0.35,0.55 -0.66,0.75 -1.33,0.92 -2.21,0.58 -3.22,-1.31 -2.61,-2.32 0.26,-0.43 0.67,-0.46 1.31,-0.51zm-1.47 -0.42c0.06,-0.88 0.24,-2.12 1.11,-2.5 0.81,-0.36 2.28,0.03 3.1,0.23 1.85,0.44 2.84,0.74 4.67,0.37 0.25,-0.05 1.34,-0.3 1.47,-0.31 0.13,0.31 0.32,0.61 0.42,0.93 0.11,0.33 0.15,0.84 0.13,1.22l-2.9 -0.15c0.15,-0.19 0.53,-0.54 0.83,-0.67 0.5,-0.23 0.93,0.05 1.28,-0.15 -0.11,-0.09 -0.4,-0.23 -0.56,-0.29 -0.82,-0.29 -1.27,0.11 -1.86,0.53 -0.55,0.4 -1.45,1.01 -2.35,1.07 -0.55,0.03 -0.96,-0.14 -1.34,-0.37 -0.34,-0.21 -0.66,-0.5 -1.07,-0.65 -0.92,-0.32 -2.2,-0.14 -2.56,0.53 0.67,-0.1 1.14,-0.38 2,-0.06l-2.37 0.26z"/>
  <path class="fil3" d="M12.21 16.53c0.07,0.16 0.47,0.11 0.53,0.26 0.06,0.14 -0.58,0.82 -0.71,0.92 -0.14,0.12 -0.94,0.56 -0.97,0.66 0.63,0.06 1.44,-0.37 1.82,-0.8 0.08,-0.09 0.13,-0.14 0.2,-0.24 0.03,-0.04 0.06,-0.09 0.09,-0.13 0.01,-0.02 0.03,-0.05 0.04,-0.07 0,-0 0.02,-0.03 0.02,-0.04 0.08,-0.12 0.32,0.01 0.38,0.05 0.08,0.05 0.22,0.21 0.21,-0.02 -0.02,-0.46 -0.36,-0.86 -0.94,-0.82 -0.15,0.01 -0.61,0.12 -0.65,0.23z"/>
  <path class="fil4" d="M11.69 0.05l0.1 0.02c-0.02,-0.02 0.03,-0.01 -0.05,-0.03 -0.03,-0.01 -0.02,-0.01 -0.05,0.01z"/>
  <polygon class="fil5" points="10.08,21.29 10.13,21.23 10.08,21.23 "/>
 </g>
</svg>
