<?xml version="1.0" encoding="UTF-8"?>
<!DOCTYPE svg PUBLIC "-//W3C//DTD SVG 1.1//EN" "http://www.w3.org/Graphics/SVG/1.1/DTD/svg11.dtd">
<!-- Creator: CorelDRAW 2017 -->
<svg xmlns="http://www.w3.org/2000/svg" xml:space="preserve" width="29.3079mm" height="12.3048mm" version="1.1" style="shape-rendering:geometricPrecision; text-rendering:geometricPrecision; image-rendering:optimizeQuality; fill-rule:evenodd; clip-rule:evenodd"
viewBox="0 0 3913.58 1643.1"
 xmlns:xlink="http://www.w3.org/1999/xlink">
 <defs>
  <style type="text/css">
   <![CDATA[
    .fil3 {fill:#144685}
    .fil11 {fill:#164685}
    .fil5 {fill:#ECEBD1}
    .fil4 {fill:#EDF1ED}
    .fil7 {fill:#F5EAA6}
    .fil0 {fill:#F5F4EF}
    .fil2 {fill:#F6F5EA}
    .fil10 {fill:#F7EDB5}
    .fil6 {fill:#F9DC4C}
    .fil1 {fill:#F9DD4D}
    .fil8 {fill:#F9F098}
    .fil12 {fill:#FCF4B8}
    .fil9 {fill:#FCF4C3}
   ]]>
  </style>
 </defs>
 <g id="Layer_x0020_1">
  <metadata id="CorelCorpID_0Corel-Layer"/>
  <g id="_1810385944304">
   <path class="fil0" d="M370.57 1148.72c0.59,-13.71 -4.06,-51.85 -11.15,-60.04 -11.88,-13.75 -27.21,20.46 -58.1,-83.85 -5.78,-19.48 -7.88,-37.64 -18.81,-52.41 -23.72,5.31 -56.2,70.43 -25.24,130.01 17.4,33.5 61.35,61.18 113.3,66.29z"/>
   <path class="fil0" d="M1134.03 1146.18c142.99,-6.41 148.34,-175.14 81.47,-194.21 -12.41,16.04 -4.06,78.77 -50.76,120.29l-19.42 15.44c-7.76,9.96 -11.3,42.84 -11.3,58.49z"/>
  </g>
  <path class="fil1" d="M479.93 1448.34l1.4 2.39c-6.54,4.39 -9.49,11.4 -12.5,18.65l-6.88 24.13c-4.59,33.5 -3.97,19.67 -3.97,57.98 0,12.9 2.07,35.95 5.88,48.31 2.64,8.64 3.23,17.25 10.12,28.6 4.81,7.99 7.97,10.76 17.52,13.47 2.23,0.63 5.06,1.01 8.11,1.22l10.88 0c3.59,-0.2 7.01,-0.63 9.59,-1.18 17.63,-3.71 23.74,-3.11 45.35,-8.85l30.97 -7.76c6.05,-1.31 6.97,-2.03 12.11,-3.38 8.15,-2.19 16.54,-3.28 24.52,-6.45 9.92,-3.93 27.17,-7.5 35.36,-11.1 9.08,-3.97 15.4,-3.81 23.21,-9.03 -0.43,-4.85 -1.27,-4.26 -1.35,-10.31 -0.43,-25.32 1.39,-68.36 -0.21,-89.11 -6.37,-5.92 -83.54,-29.46 -98.77,-33.8 -22.33,-6.33 -60.22,-15.78 -84.18,-16.29 -8.77,-0.17 -22.49,3.59 -27.13,2.36l-0.01 0.12z"/>
  <path class="fil1" d="M811.58 1495.89l-0.04 91.78c-0.08,10.2 0.67,8.91 7.97,11.39l115.91 33.76c3.67,0.84 3.93,1.6 6.78,2.24l39.62 6.82c2.27,0.47 4.77,0.89 7.42,1.19l16.04 0c8.24,-1.05 15.94,-3.97 20.76,-10.08 12.7,-16.17 14.26,-40.46 17.29,-57.55 1.01,-5.82 0,-11.22 1.05,-17.04 3.28,-18.4 -1.18,-93.42 -22.45,-107.64l1.31 -2.58c-5.88,1.66 -19.16,-2.4 -28.44,-2.23 -48.53,0.88 -140.17,34 -183.21,49.86l-0.03 0.08z"/>
  <path class="fil1" d="M714.5 1497.24l-3.59 3.85c-2.63,3.22 0.88,-1.72 -1.82,2.15l-4.98 10.51c-1.18,4.43 -2.27,12.11 -2.23,18.4 0.04,12.65 -0.8,28.56 0.96,39.07 1.27,7.68 1.76,8.44 5.02,14.34 4.85,8.69 15.82,13.66 26.25,13.74 14.72,0.13 10.79,2.79 27.41,0.21 3.5,-0.55 6.58,-0.12 10.08,-0.21 36.71,-1.09 29.54,-50.42 29.62,-71.05 0.13,-20.08 -9.49,-23.72 -10.34,-30.71 -9.95,-0.97 -7.5,-8.65 -38.68,-9.2 -23.6,-0.39 -23.13,2.27 -37.72,8.91l0.01 0z"/>
  <g id="_1810385944912">
   <path class="fil2" d="M860.82 1165.6c3.28,-7.68 35.81,-15.44 46.2,-16.29 41.05,-3.38 64.8,25.48 66.19,57.63 0.72,16.53 -9.11,5.27 -14.69,1.43 -4.47,-3.08 -21.3,-12.57 -26.75,-3.79 -0.05,0.08 -1.15,2.19 -1.31,2.52 -0.92,1.78 -1.82,3.34 -2.75,5.02 -1.86,3.24 -3.97,6.33 -6.08,9.37 -4.97,7.21 -8.52,11.04 -13.85,17.13 -26.37,30.3 -83.4,60.96 -128.18,56.67 2.48,-7.38 58.63,-38.23 68.56,-46.58 8.95,-7.56 53.75,-55.23 49.83,-65.02 -4.09,-10.26 -32.37,-6.92 -37.22,-18.07l0.03 -0.04zm-421.36 -47.6c1.54,35.2 18.4,93.63 29.87,124.01 21.18,55.96 53.25,101.35 99.16,133.12 15.73,10.9 30.93,18.57 50.62,26.84 74.69,31.27 190.26,28.36 264.73,-1.4 73.28,-29.28 121.18,-83.63 151.52,-158.18 14.43,-35.48 25.69,-85.47 28.27,-127.76 -75.15,3.16 -153.94,-0.97 -204.13,-39.62 -45.95,-35.35 -50.72,-65.64 -71.91,-111.35 -7.42,-16.04 -14.64,-25.53 -36.83,-24.94 -19.11,0.51 -26.84,13.09 -33.76,26.59 -7.21,14.05 -12.7,28.95 -18.85,43.04 -28.86,66.23 -68.69,98.81 -139.57,105.44 -38.91,3.63 -79.51,1.68 -119.17,4.22l0.04 0.01z"/>
   <path class="fil2" d="M363.77 839.15l167.25 -18.65c-60.68,-23.15 -94.01,-3.03 -141.09,3.89 25.53,-47.3 115.69,-60.04 180.54,-37.22 29.2,10.3 51.44,31.22 75.53,45.82 26.63,16.12 55.87,28.52 94.55,26.12 63.59,-3.93 126.71,-47.26 165.57,-75.22 41.9,-30.18 73.28,-58.31 131.1,-37.68 11.47,4.09 32.37,13.93 39.79,20.3 -24.73,13.81 -54.52,-5.53 -90.04,10.56 -21.18,9.57 -48.27,33.74 -58.78,47.34l204.39 10.79c1.48,-26.55 -1.55,-62.65 -9.11,-86.04 -7.34,-22.78 -20.16,-44.12 -29.66,-65.9 -9.2,0.59 -85.86,18.36 -103.66,21.94 -129.46,25.95 -199.34,5.02 -329.55,-26 -58.15,-13.85 -161.43,-41.18 -218.57,-16.16 -61.27,26.83 -74.22,113.92 -78.22,176.12l-0.04 0z"/>
   <path class="fil2" d="M467.74 868.69c-45.07,3.62 -74.02,5.92 -92.37,36.2 -43,70.88 28.32,204.31 183.93,163.34 46.88,-12.37 69,-26.08 93.63,-65.19 22.95,-36.43 24.46,-90.38 -15.49,-113.64 -13.66,-7.93 -31.65,-12.23 -49.15,-15.28 -35.27,-6.17 -84.3,-8.36 -120.5,-5.43l-0.05 0z"/>
   <path class="fil2" d="M845.29 897.16c-9.95,32.11 -7.85,81.35 5.43,109.24 12.91,27.09 35.73,46.67 68.32,56.97 47.59,15.02 115.87,9.95 162.15,-10.08 17.85,-7.73 26.63,-13.59 35.69,-27.6 16.24,-25.1 27.84,-66.54 16.06,-101.43 -5.41,-15.92 -14.69,-28.48 -25.65,-36.29 -45.32,-32.45 -162.2,-22.7 -216.12,-7.89 -11.64,3.22 -37.76,11.27 -45.91,17.15l0.03 -0.05z"/>
  </g>
  <path class="fil3" d="M439.51 1117.99c39.66,-2.52 80.29,-0.59 119.17,-4.21 70.83,-6.64 110.67,-39.21 139.57,-105.45 6.17,-14.13 11.64,-28.98 18.85,-43.02 6.96,-13.5 14.69,-26.08 33.76,-26.59 22.19,-0.59 29.4,8.91 36.83,24.94 21.18,45.7 25.95,75.98 71.89,111.35 50.22,38.62 128.99,42.78 204.13,39.62 -2.62,42.28 -13.83,92.27 -28.26,127.76 -30.34,74.59 -78.24,128.9 -151.52,158.18 -74.47,29.74 -190.04,32.65 -264.73,1.4 -19.71,-8.27 -34.89,-15.96 -50.64,-26.84 -45.91,-31.78 -77.97,-77.18 -99.15,-133.12 -11.52,-30.38 -28.35,-88.81 -29.87,-124.01l-0.04 -0.03zm292.4 -1117.83l36.12 0c18.44,0.31 37.14,3.89 55.96,3.89l6.96 1.52c12.83,-0.84 57.09,7.01 70.71,10.38 29.62,7.3 60.38,12.37 88.83,23.46 22.03,8.6 44.51,15.82 65.9,25.75l92.83 49.11c16.29,10.88 32.9,21.04 48.49,32.82l66.57 54.74c29.92,30.13 51.81,51.81 77.98,84.63l65.14 97.47c1.78,3.22 2.12,3.08 3.89,6.41 1.31,2.5 1.94,3.89 2.99,6.04 2.5,5.02 4.69,8.07 7.29,13.34 2.46,4.98 4.82,9.11 6.89,13.75l35.32 85.98c13.5,40.71 24.56,83.77 31.47,129.87 1.01,6.66 1.27,11.56 2.36,18.27l3.42 37.88c0.89,5.82 0.33,11.7 1.09,18.27 3.73,31.69 0.84,84.26 -2.78,117.43 -2.5,22.66 -7.01,47.68 -11.43,69.92l-21.27 80.68c-4.18,14.94 -10.34,29.83 -16.25,44.43 -6.62,16.41 -16.57,41.69 -25.06,56.24 -1.56,2.66 -2.19,4.14 -3.62,6.72 -1.48,2.7 -1.99,4.43 -3.38,6.96l-21.39 37.92 -67.55 95.12c-2.06,2.27 -2.99,2.66 -4.97,5.35l-23.42 26.92c-9.67,10.71 -38.56,39.66 -51.44,49.23l-11.06 9.59c-2.31,1.8 -2.82,2.9 -5.43,4.85 -28.52,21.39 -43.84,34 -76.15,55.48 -8.65,5.73 -15.82,9.79 -24.77,15.22 -2.87,1.74 -3.42,2.11 -6.54,3.75 -26.71,14.1 -52.77,29.11 -80.92,40.38 -6.97,2.78 -14.18,6.53 -21.43,8.27 -5.86,1.66 -19.16,-2.4 -28.44,-2.24 -48.51,0.89 -140.17,34.01 -183.21,49.87 -7.38,1.99 -11.94,1.05 -20.63,1.6 -9.96,-0.96 -7.5,-8.64 -38.7,-9.2 -23.6,-0.37 -23.13,2.27 -37.72,8.91l-3.59 0c-3.71,0.04 -8.01,0.25 -11.64,0.08 -5.57,-0.21 -4.14,-0.92 -9.24,-1.35 -6.37,-5.92 -83.54,-29.46 -98.79,-33.8 -22.31,-6.33 -60.21,-15.78 -84.17,-16.29 -8.77,-0.17 -22.5,3.58 -27.13,2.36 -13.34,-3.5 -47.55,-19.08 -60.38,-26.17l-14.46 -7.46c-2.58,-1.27 -5.18,-2.5 -7.73,-3.93 -1.76,-1.01 -1.18,-0.8 -3.24,-1.9l-30.38 -17.35c-24.09,-14.3 -76.7,-49.7 -95.14,-67.46l-23.15 -20.68c-2.75,-2.75 -2.99,-2.44 -5.74,-4.59 -10.8,-8.44 -32.45,-31.55 -42.7,-43.8 -3.46,-4.13 -7.09,-6.76 -10.79,-11.14 -0.25,-0.31 -0.92,-1.15 -1.18,-1.4l-8.12 -9.95c-12.82,-16.2 -26.36,-31.27 -37.88,-48.57 -8.69,-13.01 -18.05,-24.85 -25.99,-38.52 -10.51,-18.19 -22.06,-36.32 -31.39,-55.06l-13.75 -28.83c-17.72,-35.07 -28.44,-72.79 -40.71,-110.29 -1.15,-3.47 -1.18,-5.62 -2.24,-9.37l-13.49 -60.08 -9.92 -76.55c-0.84,-5.53 -1.35,-16.91 -1.56,-29.74l0 -55.7 7.76 -78.16c7.93,-48.86 18.52,-91.98 33.72,-137.93 7.76,-23.5 18.05,-47.26 28.23,-69.88 7.42,-16.57 16,-33.96 25.57,-49.27 19.91,-31.94 33,-55.15 56.28,-85.7 1.99,-2.58 2.86,-3.24 4.65,-5.69l49.33 -57.77c7.62,-7.64 14.3,-14.31 21.94,-21.94l33.53 -30.97c2.63,-2.71 2.63,-2.46 5.62,-4.73 2.62,-1.99 3.11,-3.03 5.43,-4.85l24.01 -18.57c21,-15.56 41.68,-30.75 64.38,-44l27.52 -16.37c4.81,-2.66 8.81,-4.34 13.79,-6.84l14.18 -7.76c5.31,-2.66 10.08,-4.39 15.06,-6.88 9.12,-4.61 19.59,-9.21 29.5,-13.09l78.69 -28.44c20.67,-6.84 67.34,-16.2 88.52,-19.91 15.7,-2.75 32.53,-3.73 47.04,-7.17l28.56 -1.11c4.82,-0.33 4.22,-1.27 10.26,-1.35 3.24,-0.04 7.17,0.31 10.39,0.05 4.59,-0.33 3.54,-1.01 8.05,-1.31l-0.11 0.16zm-361.3 1148.56c-51.93,-5.14 -95.9,-32.82 -113.29,-66.29 -30.97,-59.58 1.52,-124.68 25.22,-130.01 10.92,14.82 13.03,32.92 18.83,52.41 30.89,104.3 46.19,70.09 58.1,83.85 7.09,8.19 11.72,46.32 11.14,60.04zm763.45 -2.54c0,-15.65 3.55,-48.51 11.31,-58.49l19.4 -15.44c46.71,-41.52 38.36,-104.26 50.76,-120.29 66.83,19.07 61.53,187.76 -81.47,194.21zm-288.73 -249.03c8.15,-5.86 34.26,-13.97 45.91,-17.13 53.93,-14.81 170.8,-24.56 216.12,7.89 10.92,7.85 20.26,20.38 25.65,36.28 11.82,34.85 0.17,76.29 -16.06,101.45 -9.08,14.01 -17.85,19.87 -35.69,27.59 -46.3,20.04 -114.52,25.1 -162.15,10.08 -32.57,-10.3 -55.35,-29.83 -68.32,-56.95 -13.29,-27.9 -15.4,-77.14 -5.43,-109.24l-0.03 0.04zm-377.55 -28.47c36.19,-2.96 85.23,-0.72 120.5,5.43 17.51,3.08 35.48,7.34 49.15,15.28 39.95,23.25 38.43,77.18 15.48,113.64 -24.6,39.07 -46.7,52.83 -93.63,65.19 -155.57,40.97 -226.91,-92.45 -183.92,-163.34 18.35,-30.26 47.34,-32.53 92.35,-36.2l0.07 0zm-103.97 -29.5c4.01,-62.2 16.92,-149.29 78.22,-176.13 57.14,-25.02 160.41,2.32 218.57,16.17 130.26,31.01 200.09,51.93 329.55,25.99 17.8,-3.59 94.47,-21.3 103.66,-21.94 9.49,21.78 22.31,43.13 29.66,65.91 7.56,23.37 10.64,59.49 9.11,86.04l-204.39 -10.8c10.51,-13.58 37.6,-37.76 58.78,-47.34 35.48,-16.04 65.31,3.3 90.04,-10.55 -7.42,-6.37 -28.27,-16.17 -39.79,-20.3 -57.85,-20.64 -89.24,7.5 -131.1,37.67 -38.86,27.98 -101.98,71.32 -165.57,75.23 -38.68,2.4 -67.93,-10 -94.55,-26.12 -24.09,-14.6 -46.32,-35.53 -75.53,-45.82 -64.86,-22.83 -155.02,-10.08 -180.54,37.22 47.14,-6.92 80.41,-27.09 141.09,-3.89l-167.25 18.65 0.04 0z"/>
  <path class="fil3" d="M860.82 1165.6c4.85,11.14 33.13,7.8 37.22,18.05 3.87,9.79 -40.89,57.51 -49.83,65.02 -9.92,8.36 -66.09,39.21 -68.57,46.58 44.77,4.31 101.82,-26.41 128.19,-56.67 5.31,-6.12 8.83,-9.91 13.85,-17.13 2.11,-3.03 4.22,-6.17 6.08,-9.36 0.96,-1.68 1.86,-3.24 2.75,-5.02 0.17,-0.33 1.22,-2.46 1.3,-2.54 5.45,-8.72 22.27,0.72 26.76,3.81 5.57,3.85 15.4,15.1 14.69,-1.43 -1.4,-32.15 -25.16,-61.01 -66.21,-57.65 -10.38,0.84 -42.9,8.6 -46.19,16.29l-0.03 0.05z"/>
  <path class="fil4" d="M823.98 4.05l6.96 1.52c-1.74,-1.52 2.11,-0.97 -3.24,-2.03 -2.36,-0.45 -1.14,-0.33 -3.71,0.52l0 -0.01z"/>
  <polygon class="fil5" points="710.9,1501.05 714.5,1497.24 710.9,1497.24 "/>
  <g id="_1810385879472">
   <g>
    <polygon class="fil6" points="2711.29,833.05 2940.83,833.14 2939.76,327.54 2711.29,327.88 "/>
    <path class="fil6" d="M3714.58 765.2c-18.29,-36.39 -60.88,0 -65.56,3.15 -10.22,-9.15 -11.52,-18.95 -32.13,-18.51 -19.04,0.45 -24.73,10.47 -36.68,18.09l-2.62 -5.33c-1.96,-5.13 -0.21,-0.55 -1.84,-5.46 -1.98,-5.98 -0.12,-2.3 -1.74,-7.18 -20.92,1.2 -45.41,5.01 -55.63,19.7 8.6,12.53 10.22,27.57 10,43.33 -0.44,32.58 -7.09,21.26 -12.18,39.97 8.28,10.46 15.78,10.46 34.09,10.14 15.68,-0.21 22.65,-0.65 31.79,-10.14 -0.65,-17.64 -16.87,-58.05 4.79,-70.36 27.56,10.88 3.28,65.77 3.7,73.72 17.43,11.98 52.72,9.27 64.46,-4.47 -2.83,-20.79 -16.12,-43 -2.39,-68.92 33.86,1.72 9.28,55.63 11.54,73.19 20.92,9.92 45.83,10.87 61.63,-3.28 -2.5,-17.52 -7.72,-12.42 -7.62,-39.75 0.12,-14.93 3.04,-34.84 -3.61,-47.91l0 0.03z"/>
    <path class="fil6" d="M3778.82 775.53c4.03,-7.09 22.54,-14.15 21.34,10.88 -10.02,4.89 -11.98,4.46 -20.67,0.65 -0.12,-0.21 -6.33,-1.52 -0.67,-11.54zm63.36 20.59c1.19,-12.75 -6.53,-25.02 -15.58,-33.1 -12.51,-11.32 -30.07,-17.64 -52.39,-11.66 -83.08,22.11 -34.84,150.37 49.43,102.25 17.76,-10.14 21.46,-36.59 -4.35,-24.61 -20.59,9.59 -37.46,4.47 -40.74,-15.92 17.76,-7.62 41.15,2.3 58.38,-5.78l5.13 -11.2 0.12 0.03z"/>
   </g>
   <path class="fil1" d="M3024.16 889.67c-2.38,-8.37 7.64,-3.81 -9.8,-5.66l-223.56 0.12c-11.86,2.18 -1.43,-2.83 -11,7.72l-148.85 160.96c0,-196.56 0.21,-393.14 0.12,-589.7 0,-36.27 -18.09,-77.62 -42.05,-104.42 -6.53,-7.29 -68.28,-68.26 -170.64,-38.23 -12.95,3.82 -15.25,1.64 -27.86,8.71 -0.87,0.53 -3.37,1.96 -4.26,2.5 -3.94,2.06 -2.95,1.11 -6.77,3.28 -1.64,0.97 -5.86,4.02 -5.86,4.02 -27.87,17.97 -18.31,10.02 -44.88,38.44 -6.77,7.18 -10.02,12.42 -15.26,21.34 -6.12,10.46 -11.11,13.7 -12.19,27.77l-6.64 0c0,-30.07 -1.11,-79.4 -6.65,-103.23l-209.86 0 0 513.02 233.16 0c14.49,-62.2 -12.1,-282.37 11.2,-318.64 9.68,-15.01 36.8,-24.28 56.86,-12.51 19.82,11.54 15.26,38.88 15.26,67.94l0 742.78c0,12.97 1.09,26.67 -0.87,39.31 -2.83,18.51 0.87,15.58 0.87,37.24l236.41 0c0,-136 -9.92,-79.05 37.91,-145.27 6.32,-8.71 5.33,-8.61 15.34,-11.32 1.31,2.71 2.83,7.5 3.81,9.47l71.88 114.68c5.22,7.5 2.06,4.26 5.88,10.79 6.65,11.2 8.05,5.78 11.76,21.58l269.76 0c-3.61,-15.26 -4.57,-8.61 -14.93,-28.43l-165.85 -260.62c-6.97,-9.27 -7.29,-11.11 -12.42,-20.91l24.82 -28.43c2.62,-3.16 3.69,-4.35 5.98,-7.3l31.59 -34.96c5.13,-5.13 6.76,-7.09 11.11,-12.19l49.98 -56.62c0.44,-0.53 1.09,-1.19 1.52,-1.72l45.08 -51.82 -0.12 0.32z"/>
   <path class="fil1" d="M2040.59 1196.11c13.5,-8.05 40.5,-7.09 58.59,-4.35 2.71,15.92 4.35,41.61 -4.47,53.25 -12.85,11.2 -10.99,14.03 -30.69,17.11 -44.32,6.77 -61.21,-36.59 -39.31,-55.96l15.92 -10.02 -0.04 -0.03zm85.8 136.55l3.94 -7.1 6.85 7.1c2.71,36.15 64.14,59.12 95.93,68.06 24.41,6.76 92.45,4.55 117.95,-4.81 16.66,-6.1 15.68,-3.81 29.95,-13.29l3.27 -126.54 -39.95 0c-13.3,-25.02 -13.38,-18.17 -13.3,-56.62 0.12,-44.76 5.78,-163.12 -10.99,-198.86 -25.04,-53.69 -52.26,-79.92 -106.6,-103.23 -8.93,-3.81 -2.38,-2.04 -11.2,-5.45l-41.4 -11.86c-6.52,-0.87 -8.28,-0.12 -15.02,-1.64 -44.64,-10.22 -10.99,-2.62 -47.91,-5.45 -38.56,-2.95 -12.63,-6.2 -63.48,-0.21 -10.78,1.19 -21.78,-0.77 -32.33,0.87 -20.03,3.15 -66.22,12.97 -84.51,22.11 -33.97,16.77 -30.82,9.36 -67.86,42.05 -4.99,4.46 -1.51,0.85 -5.11,4.79l-29.51 40.5c-10.46,18.41 -23.42,44.96 -23.42,66.54 7.09,1.64 18.29,5.13 23.96,6l152.13 27.65c7.62,0.97 20.68,3.27 27,6.32 11.78,-22.11 7.4,-55.64 56.62,-56.86 10.35,-0.21 15.8,0.87 22.98,3.93 26.67,11.44 23.64,32.25 23.64,66.31 -36.48,0 -154.97,-4.67 -184.38,5.45 -49.43,16.87 -81.03,27.77 -109.34,80.59 -17.64,32.9 -18.41,95.38 1.96,132.52 7.72,14.03 9.36,19.16 21.67,31.59l3.37 3.27c2.95,2.83 4.79,4.79 8.28,8.37 38.78,39.1 114.46,41.73 168.59,38 38,-2.63 108.9,-33.12 118.36,-70.04l-0.12 -0.08z"/>
   <path class="fil1" d="M3263.73 884.34l-229.88 -0.33c-6.98,42.92 -1.44,143.32 -1.44,192.22 0,61.21 -2.95,129.49 2.3,189.79 -1.52,15.6 -2.06,18.84 2.39,30.07 6.97,17.64 7.09,30.41 20.68,49.23l4.46 5.54c30.82,36.8 67.41,51.82 118.16,51.73 71.64,-0.2 104.98,-5.01 154.1,-59.12 8.61,-9.48 24.73,-34.42 25.81,-47.47l6.64 0c0.33,13.94 1.86,10 3.04,20.26 0.87,7.5 0.32,18.51 0.21,26.35 0,16.65 0,33.32 0,49.97l213.09 0 0 -326.46c0,-23.74 -3.37,-31.58 4.47,-43.33l-43.99 -27.11c-39.63,-29.75 -71.35,-64.7 -85.92,-116.08l-107.69 0 0.12 279.77c-0.65,8.95 -5.34,30.61 -8.83,37.91 -3.93,8.16 -4.55,7.84 -10.99,12.43 -12.31,8.69 -64.04,25.26 -63.48,-43.57 0.12,-18.51 4.35,-274.64 -3.27,-281.82l0 0.03z"/>
   <polygon class="fil1" points="1751.14,833.26 1984.72,833.58 1984.72,118.67 1750.49,118.67 "/>
   <path class="fil1" d="M2700.82 193.6c0,16.45 7.1,46.82 18.43,61.53 0.44,0.53 1.09,1.31 1.51,1.86l3.16 3.49c14.49,15.68 14.27,11.98 29.5,20.47 33.97,18.95 126.78,20.03 168.8,-12.51l22.97 -30.41c19.62,-40.94 8.05,-110.65 -43.33,-132.2 -42.58,-17.84 -54.88,-12.18 -107.69,-12.18 -22.86,0 -55.31,16.87 -67.62,29.08 -16.65,16.65 -25.68,47.71 -25.68,70.89l-0.04 -0.03z"/>
   <path class="fil3" d="M3837.17 807.33c-17.2,8.05 -40.62,-1.84 -58.38,5.78 3.16,20.27 20.03,25.48 40.74,15.92 25.81,-11.98 22.11,14.49 4.35,24.61 -84.27,48.14 -132.53,-80.16 -49.45,-102.25 22.45,-5.98 39.85,0.45 52.4,11.66 8.93,8.05 16.65,20.35 15.58,33.1l-5.13 11.22 -0.12 -0.04zm76.14 -17.64l0 30.41c-1.72,19.82 -6.2,38.55 -9.92,53.04 -14.27,56.3 -66.63,118.82 -120.34,142.77 -7.38,3.37 -3.69,1.84 -8.93,4.35 -28.52,13.82 -65.35,19.6 -104.01,19.48 -33.76,-0.12 -56.08,-9.59 -82,-16.77l-43.99 -27.12c-39.63,-29.74 -71.35,-64.7 -85.92,-116.07 -8.17,-12.43 -16.66,-65.03 -13.09,-85.26 2.95,-16.13 2.62,-28.52 6.12,-43.99 9.92,-43.57 33.64,-81.36 64.46,-112.05 48.33,-48.34 128.38,-79.19 206.78,-63.92 27.57,5.33 50.22,16.65 72.29,27.56 36.69,18.17 80.71,64.91 95.93,104.01 15.58,39.51 15.02,30.59 22.11,77.86 0.21,1.96 0.53,3.94 0.77,5.88l-0.27 -0.19zm-394.88 -19.91c10.22,-14.69 34.63,-18.61 55.64,-19.7 1.63,4.89 -0.21,1.2 1.72,7.18 1.52,4.79 -0.21,0.33 1.84,5.46l2.63 5.33c11.98,-7.72 17.64,-17.76 36.68,-18.09 20.59,-0.44 21.87,9.36 32.13,18.51 4.67,-3.15 47.26,-39.51 65.55,-3.15 6.65,13.17 3.7,32.98 3.61,47.91 -0.11,27.24 5.13,22.11 7.64,39.75 -15.8,14.15 -40.74,13.18 -61.63,3.28 -2.3,-17.52 22.43,-71.44 -11.54,-73.19 -13.71,25.92 -0.45,48.13 2.38,68.93 -11.76,13.7 -47.14,16.45 -64.46,4.46 -0.53,-7.95 23.76,-62.81 -3.69,-73.72 -21.67,12.31 -5.46,52.72 -4.81,70.36 -9.15,9.48 -16,9.92 -31.79,10.14 -18.29,0.33 -25.81,0.33 -34.09,-10.14 5.13,-18.75 11.78,-7.38 12.19,-39.95 0.2,-15.8 -1.43,-30.82 -10.02,-43.33l0 -0.04z"/>
   <path class="fil7" d="M1750.49 118.67l234.23 0 0 714.8 -233.58 -0.21 -0.65 -714.59zm-2.18 4.89l0 712.85 239.8 0 0 -712.85c0,-7.62 -2.28,-10.02 -10,-10.02l-219.88 0c-7.62,0 -10.02,2.3 -10.02,10.02l0.09 0z"/>
   <path class="fil8" d="M2711.29 327.88l228.36 -0.33 1.11 505.62 -229.56 -0.12 0 -505.17 0.09 0zm-3.82 508.54l236.41 0 0 -513.01 -236.41 0 0 513.01z"/>
   <path class="fil9" d="M3024.16 889.67l6.2 366.55c2.18,14.61 -0.85,4.35 4.35,9.92 -5.21,-60.32 -2.3,-128.62 -2.3,-189.79 0,-48.9 -5.54,-149.42 1.44,-192.22l229.88 0.33c-3.61,-6 2.3,-5.01 -26.68,-4.67l-419.67 0c-33.32,-0.45 -22.11,-0.12 -26.59,4.46l223.56 -0.12c17.44,1.86 7.38,-2.71 9.8,5.66l0 -0.12z"/>
   <path class="fil10" d="M2040.59 1196.11l57.41 0c0,8.16 0.65,18.83 0,26.67 -0.99,13.09 -2.95,7.84 -3.38,22.21 8.83,-11.66 7.18,-37.34 4.47,-53.25 -18.08,-2.71 -45.08,-3.7 -58.58,4.35l0.08 0.03z"/>
   <path class="fil11" d="M3779.49 787.1c8.69,3.82 10.78,4.26 20.67,-0.65 1.2,-25.04 -17.43,-17.97 -21.34,-10.88 -5.66,10.02 0.55,11.32 0.67,11.54z"/>
   <polygon class="fil12" points="2126.51,1332.66 2137.17,1332.66 2130.32,1325.6 "/>
  </g>
 </g>
</svg>
